<svg width="17" height="17" viewBox="0 0 17 17" fill="none" xmlns="http://www.w3.org/2000/svg">
<g clip-path="url(#clip0_138_165)">
<path d="M12.3497 7.35915V4.14195C12.3497 4.04987 12.3072 3.96478 12.247 3.89747L8.64006 0.109856C8.57275 0.0390395 8.47703 0 8.38144 0H2.66273C1.60698 0 0.763672 0.860945 0.763672 1.91683V12.7305C0.763672 13.7864 1.60698 14.6332 2.66273 14.6332H7.17679C8.03061 16.0504 9.58259 17 11.3505 17C14.0362 17 16.2294 14.8174 16.2294 12.1282C16.2331 9.77908 14.5465 7.81621 12.3497 7.35915ZM8.73578 1.24369L11.1557 3.79112H9.58609C9.1184 3.79112 8.73578 3.405 8.73578 2.9373V1.24369ZM2.66273 13.9245C2.00023 13.9245 1.47235 13.393 1.47235 12.7305V1.91683C1.47235 1.25069 2.00023 0.708678 2.66273 0.708678H8.0271V2.9373C8.0271 3.79825 8.72515 4.49979 9.58609 4.49979H11.6411V7.26693C11.5348 7.26343 11.4497 7.2528 11.3577 7.2528C10.1211 7.2528 8.98377 7.72763 8.12632 8.47171H3.62653C3.43159 8.47171 3.27219 8.63111 3.27219 8.82592C3.27219 9.02086 3.43159 9.18026 3.62653 9.18026H7.46732C7.2157 9.5346 7.00663 9.88894 6.84373 10.2787H3.62653C3.43159 10.2787 3.27219 10.4381 3.27219 10.633C3.27219 10.8278 3.43159 10.9874 3.62653 10.9874H6.61338C6.52479 11.3417 6.47875 11.735 6.47875 12.1282C6.47875 12.7659 6.60274 13.3967 6.82596 13.9282H2.66273V13.9245ZM11.3542 16.2949C9.05822 16.2949 7.19093 14.4276 7.19093 12.1317C7.19093 9.83576 9.05458 7.96848 11.3542 7.96848C13.6536 7.96848 15.5173 9.83576 15.5173 12.1317C15.5173 14.4276 13.6501 16.2949 11.3542 16.2949Z" fill="white"/>
<path d="M3.62656 7.40519H7.21573C7.41067 7.40519 7.57007 7.24566 7.57007 7.05085C7.57007 6.85591 7.41067 6.69651 7.21573 6.69651H3.62656C3.43162 6.69651 3.27222 6.85591 3.27222 7.05085C3.27222 7.24566 3.43162 7.40519 3.62656 7.40519Z" fill="white"/>
<path d="M11.2371 10.0874C11.2655 10.0934 11.2938 10.0965 11.3222 10.0965C11.3576 10.0965 11.3895 10.0934 11.4214 10.0842C11.8891 10.1178 12.2541 10.4528 12.2541 10.861C12.2541 11.0284 12.4135 11.1654 12.6083 11.1654C12.8033 11.1654 12.9627 11.0284 12.9627 10.861C12.9627 10.1909 12.41 9.63047 11.6766 9.49947V9.30459C11.6766 9.13702 11.517 9 11.3222 9C11.1273 9 10.9679 9.13702 10.9679 9.30459V9.51173C10.2592 9.6579 9.73132 10.2092 9.73132 10.861C9.73132 11.6285 10.4576 12.2498 11.347 12.2498C11.8466 12.2498 12.2541 12.6 12.2541 13.0294C12.2541 13.4589 11.8501 13.8122 11.347 13.8122C10.8474 13.8122 10.44 13.4619 10.44 13.0324C10.44 12.865 10.2805 12.7279 10.0857 12.7279C9.89072 12.7279 9.73132 12.865 9.73132 13.0324C9.73132 13.6873 10.2592 14.2355 10.9679 14.3817V14.6954C10.9679 14.863 11.1273 15 11.3222 15C11.517 15 11.6766 14.863 11.6766 14.6954V14.3908C12.41 14.2598 12.9627 13.6995 12.9627 13.0294C12.9627 12.2619 12.2363 11.6406 11.347 11.6406C10.8474 11.6406 10.44 11.2903 10.44 10.861C10.44 10.465 10.7872 10.1331 11.2371 10.0874Z" fill="white"/>
</g>
<defs>
<clipPath id="clip0_138_165">
<rect width="17" height="17" fill="white"/>
</clipPath>
</defs>
</svg>
