<svg width="56" height="61" viewBox="0 0 56 61" fill="none" xmlns="http://www.w3.org/2000/svg">
<path d="M28.5904 51.6753H3.24791C2.95723 51.6753 2.69886 51.5677 2.48354 51.3416C1.67611 50.2973 2.54814 48.7148 3.46322 48.015C5.34722 46.6047 6.47761 44.3439 6.47761 41.9862V17.2251C6.47761 16.633 5.99316 16.1485 5.40105 16.1485H4.32448V12.9188H40.9278V16.1485H10.7839C9.37359 16.1701 9.36282 18.2801 10.7839 18.3017H38.7747V32.8784C38.7747 33.4705 39.2592 33.955 39.8513 33.955C40.4434 33.955 40.9278 33.4705 40.9278 32.8784V18.3017C42.1121 18.3017 43.081 17.3328 43.081 16.1485V12.9188C43.081 11.7346 42.1121 10.7657 40.9278 10.7657H40.5833C39.3991 7.89125 37.3106 5.39361 34.4792 3.49885C33.984 3.17588 33.3165 3.30507 32.9828 3.80029C32.649 4.29551 32.789 4.96299 33.2842 5.29672C35.4804 6.76086 37.1598 8.64485 38.2257 10.7765H7.03743C10.2348 3.90795 20.5807 0.398331 28.3858 2.99286C28.9564 3.16511 29.5593 2.84214 29.7315 2.27156C29.9038 1.70098 29.5808 1.0981 29.0102 0.92585C26.954 0.312205 24.8116 0 22.6262 0C14.5519 0 7.30657 4.3924 4.66898 10.7657H4.31371C3.12948 10.7657 2.16057 11.7346 2.16057 12.9188V16.1485C2.16057 17.3328 3.12948 18.3017 4.31371 18.3017V41.9862C4.31371 43.6764 3.50628 45.2805 2.16057 46.2925C0.233511 47.7136 -0.918418 50.9863 0.944047 52.8703C1.54693 53.4947 2.36512 53.8285 3.23714 53.8285H28.5796C29.9899 53.7962 30.0007 51.7076 28.5796 51.6753H28.5904Z" fill="#008001"/>
<path d="M32.3154 29.6056V23.1462C32.3369 22.3711 31.4434 21.8113 30.7544 22.1881C30.1838 22.5003 24.0043 25.4716 23.7028 25.8269V23.157C23.6813 21.7467 21.5712 21.7359 21.5497 23.157V25.8269C21.2913 25.6331 21.0222 25.4501 20.7315 25.3101L14.4982 22.1988C13.8199 21.8328 12.9156 22.3819 12.9371 23.157V29.6164V33.4167C12.9371 35.4729 14.0783 37.3139 15.9085 38.229L21.5497 41.0496V46.8415C21.5712 48.2411 23.6813 48.2626 23.7028 46.8415V41.0496L29.344 38.229C31.1742 37.3139 32.3154 35.4622 32.3154 33.4167V29.6164V29.6056ZM25.4899 27.2264L30.1622 24.8903V28.9382C29.6563 29.1965 24.015 32.0064 23.7028 32.1679V30.1116C23.7028 28.8843 24.3918 27.7755 25.4899 27.2264ZM15.0903 24.8903L19.7626 27.2264C20.8607 27.7755 21.5497 28.8843 21.5497 30.1116V32.1679L20.7315 31.7588L15.0903 28.9382V24.8903ZM15.0903 33.4059V31.3497L19.7626 33.6858C20.8607 34.2349 21.5497 35.3438 21.5497 36.571V38.6273L16.8774 36.2911C15.7793 35.7421 15.0903 34.6332 15.0903 33.4059ZM30.1622 33.4059C30.1622 34.6332 29.4732 35.7421 28.3751 36.2911L23.7028 38.6273V36.571C23.7028 35.3438 24.3918 34.2349 25.4899 33.6858L30.1622 31.3497V33.4059Z" fill="#A8BD38"/>
<path d="M44.1576 36.6034C37.6229 36.6034 32.3154 41.9109 32.3154 48.4456C32.9613 64.1528 55.354 64.1528 55.9999 48.4456C55.9999 41.9109 50.6924 36.6034 44.1576 36.6034ZM44.1576 58.1348C38.8179 58.1348 34.4685 53.7854 34.4685 48.4456C34.996 35.5914 53.3193 35.5914 53.8468 48.4456C53.8468 53.7854 49.4974 58.1348 44.1576 58.1348Z" fill="#008001"/>
<path d="M44.9114 43.375C44.513 42.9551 43.7917 42.9551 43.3826 43.375L40.1529 46.6047C39.1625 47.6059 40.6697 49.1239 41.6709 48.1226L43.0597 46.7339V52.7519C43.0597 53.344 43.5441 53.8285 44.1362 53.8285C44.7284 53.8285 45.2128 53.344 45.2128 52.7519V46.7339L46.6016 48.1226C47.6028 49.1131 49.1208 47.5951 48.1196 46.6047L44.8898 43.375H44.9114Z" fill="#A8BD38"/>
</svg>
