<svg width="14" height="12" viewBox="0 0 14 12" fill="none" xmlns="http://www.w3.org/2000/svg">
<path d="M6.55538 8.82807C6.61377 8.88258 6.68308 8.92582 6.75937 8.95532C6.83566 8.98482 6.91743 9 7 9C7.08257 9 7.16434 8.98482 7.24063 8.95532C7.31692 8.92582 7.38623 8.88258 7.44462 8.82807L9.81584 6.61454C9.93376 6.50446 10 6.35517 10 6.1995C10 6.04383 9.93376 5.89453 9.81584 5.78446C9.69792 5.67438 9.53799 5.61254 9.37123 5.61254C9.20447 5.61254 9.04455 5.67438 8.92663 5.78446L7.62877 6.99601V0.586957C7.62877 0.431286 7.56252 0.281991 7.44461 0.171916C7.32669 0.0618399 7.16676 0 7 0C6.83324 0 6.67331 0.0618399 6.55539 0.171916C6.43748 0.281991 6.37123 0.431286 6.37123 0.586957V6.99601L5.07337 5.78446C4.95545 5.67438 4.79553 5.61254 4.62877 5.61254C4.46201 5.61254 4.30208 5.67438 4.18416 5.78446C4.06624 5.89453 4 6.04383 4 6.1995C4 6.35517 4.06624 6.50446 4.18416 6.61454L6.55538 8.82807Z" fill="white"/>
<path d="M13.2759 5C13.0838 5 12.8996 5.06914 12.7638 5.19221C12.628 5.31528 12.5517 5.4822 12.5517 5.65625V10.6875H1.44828V5.65625C1.44828 5.4822 1.37198 5.31528 1.23618 5.19221C1.10038 5.06914 0.916191 5 0.724138 5C0.532085 5 0.347897 5.06914 0.212095 5.19221C0.0762929 5.31528 0 5.4822 0 5.65625V10.9062C0 11.1963 0.127155 11.4745 0.353492 11.6796C0.579829 11.8848 0.886808 12 1.2069 12H12.7931C13.1132 12 13.4202 11.8848 13.6465 11.6796C13.8728 11.4745 14 11.1963 14 10.9062V5.65625C14 5.4822 13.9237 5.31528 13.7879 5.19221C13.6521 5.06914 13.4679 5 13.2759 5Z" fill="white"/>
</svg>
