<svg width="22" height="27" viewBox="0 0 22 27" fill="none" xmlns="http://www.w3.org/2000/svg">
<path d="M2.39875 0H4.45483V2.6481C4.45483 3.17772 4.79751 3.5308 5.14019 3.5308C5.48286 3.5308 5.82554 3.17772 5.82554 2.6481V0H16.7913V2.6481C16.7913 3.17772 17.134 3.5308 17.4766 3.5308C17.8193 3.5308 18.162 3.17772 18.162 2.6481V0H20.2181C21.2461 0 22 1.14751 22 2.6481V5.82582H0.0685349V2.6481C0.0685349 1.14751 1.30218 0 2.39875 0ZM22 7.67948V23.8329C22 25.4217 21.2461 26.481 20.1495 26.481H2.33022C1.23364 26.481 0 25.3335 0 23.8329V7.67948H22ZM15.9003 22.5088H17.5452C17.8193 22.5088 18.0935 22.244 18.0935 21.8027V19.5959C18.0935 19.2428 17.8879 18.8898 17.5452 18.8898H15.8318C15.5576 18.8898 15.2835 19.1546 15.2835 19.5959V21.8027C15.352 22.244 15.5576 22.5088 15.9003 22.5088ZM15.9003 14.5645H17.5452C17.8193 14.5645 18.0935 14.2997 18.0935 13.8584V11.6516C18.0935 11.2986 17.8879 10.9455 17.5452 10.9455H15.8318C15.5576 10.9455 15.2835 11.2103 15.2835 11.6516V13.8584C15.352 14.2997 15.5576 14.5645 15.9003 14.5645ZM10.4174 22.5088H12.1308C12.405 22.5088 12.6791 22.244 12.6791 21.8027V19.5959C12.6791 19.2428 12.4735 18.8898 12.1308 18.8898H10.4174C10.1433 18.8898 9.86916 19.1546 9.86916 19.5959V21.8027C9.86916 22.244 10.0748 22.5088 10.4174 22.5088ZM10.4174 14.5645H12.1308C12.405 14.5645 12.6791 14.2997 12.6791 13.8584V11.6516C12.6791 11.2986 12.4735 10.9455 12.1308 10.9455H10.4174C10.1433 10.9455 9.86916 11.2103 9.86916 11.6516V13.8584C9.86916 14.2997 10.0748 14.5645 10.4174 14.5645ZM4.93458 22.5088H6.64797C6.92212 22.5088 7.19626 22.244 7.19626 21.8027V19.5959C7.19626 19.2428 6.99065 18.8898 6.64797 18.8898H4.93458C4.66043 18.8898 4.38629 19.1546 4.38629 19.5959V21.8027C4.38629 22.244 4.5919 22.5088 4.93458 22.5088ZM4.93458 14.5645H6.64797C6.92212 14.5645 7.19626 14.2997 7.19626 13.8584V11.6516C7.19626 11.2986 6.99065 10.9455 6.64797 10.9455H4.93458C4.66043 10.9455 4.38629 11.2103 4.38629 11.6516V13.8584C4.38629 14.2997 4.5919 14.5645 4.93458 14.5645Z" fill="#898989"/>
</svg>
