<svg width="12" height="14" viewBox="0 0 12 14" fill="none" xmlns="http://www.w3.org/2000/svg">
<mask id="mask0_111_196" style="mask-type:alpha" maskUnits="userSpaceOnUse" x="-5" y="-4" width="22" height="21">
<rect x="-4.28571" y="-3.62636" width="20.5714" height="20.5714" fill="#D9D9D9"/>
</mask>
<g mask="url(#mask0_111_196)">
<path d="M2.24175 13.5165C1.85824 13.5165 1.53159 13.3816 1.2618 13.1119C0.99203 12.8421 0.857144 12.5154 0.857144 12.1319V1.5165H0V0.659358H3.42857V0H8.57144V0.659358H12V1.5165H11.1429V12.1319C11.1429 12.5264 11.0107 12.8558 10.7464 13.1201C10.4822 13.3844 10.1528 13.5165 9.75826 13.5165H2.24175ZM10.2857 1.5165H1.71429V12.1319C1.71429 12.2857 1.76374 12.4121 1.86264 12.511C1.96154 12.6099 2.08791 12.6594 2.24175 12.6594H9.75826C9.89012 12.6594 10.011 12.6044 10.1209 12.4945C10.2308 12.3846 10.2857 12.2638 10.2857 12.1319V1.5165ZM4.12087 10.9451H4.97803V3.23079H4.12087V10.9451ZM7.02198 10.9451H7.87914V3.23079H7.02198V10.9451Z" fill="white"/>
</g>
</svg>
