<svg width="124" height="124" viewBox="0 0 124 124" fill="none" xmlns="http://www.w3.org/2000/svg">
<path d="M115.44 115.427C112.785 115.43 110.132 115.446 107.477 115.426C106.992 115.421 106.851 115.545 106.869 116.033C106.908 117.068 106.902 118.106 106.871 119.141C106.857 119.581 106.962 119.741 107.432 119.724C108.488 119.688 109.548 119.727 110.605 119.705C110.996 119.697 111.182 119.763 111.166 120.223C111.132 121.323 111.14 122.424 111.164 123.524C111.171 123.895 111.054 123.997 110.689 123.994C108.142 123.981 105.596 123.979 103.049 123.994C102.652 123.997 102.595 123.837 102.601 123.499C102.618 122.42 102.593 121.341 102.615 120.261C102.623 119.87 102.554 119.698 102.097 119.701C98.1696 119.72 94.2418 119.718 90.3139 119.702C89.892 119.701 89.7619 119.814 89.773 120.241C89.802 121.318 89.7674 122.399 89.791 123.478C89.7993 123.859 89.7149 124 89.297 123.997C86.7721 123.978 84.2472 123.978 81.7222 123.997C81.3072 124 81.2242 123.864 81.2256 123.481C81.2408 120.999 81.22 118.517 81.2449 116.036C81.2505 115.554 81.1315 115.413 80.6403 115.426C79.4117 115.46 78.1804 115.431 76.9505 115.426L76.9684 115.444C76.9684 114.014 76.9684 112.584 76.9684 111.154L76.9505 111.172C79.6013 111.168 82.2521 111.153 84.903 111.172C85.3706 111.175 85.52 111.077 85.5186 110.577C85.4993 105.275 85.4965 99.9717 85.52 94.6696C85.5228 94.1259 85.3346 94.0387 84.8601 94.0525C83.8044 94.083 82.7474 94.047 81.6918 94.0705C81.3182 94.0788 81.2173 93.9557 81.2242 93.5945C81.2463 92.323 81.238 91.0514 81.2422 89.7799L81.2228 89.7978C82.4956 89.7951 83.7685 89.7785 85.0413 89.7978C85.4093 89.8034 85.5186 89.6927 85.5145 89.3246C85.4965 88.0517 85.5131 86.7787 85.5145 85.5058L85.4965 85.5238C89.5751 85.521 93.6538 85.5086 97.7324 85.5266C98.2139 85.5279 98.3605 85.4117 98.3411 84.9219C98.301 83.9091 98.3052 82.8921 98.3398 81.8793C98.3564 81.3936 98.2498 81.2027 97.7144 81.2262C96.6809 81.2733 95.6419 81.2152 94.6084 81.2511C94.138 81.2677 94.0328 81.1072 94.0453 80.6672C94.0757 79.5894 94.0412 78.5088 94.0633 77.4309C94.0702 77.0629 93.9581 76.9508 93.5901 76.9577C92.511 76.9799 91.4318 76.9453 90.3541 76.9757C89.9141 76.9882 89.7536 76.8844 89.7702 76.414C89.8062 75.3582 89.7564 74.2984 89.7923 73.2427C89.8089 72.7695 89.6443 72.6684 89.2071 72.6823C88.1944 72.7127 87.1775 72.6588 86.1647 72.7058C85.6196 72.7307 85.4896 72.5674 85.4937 72.032C85.5186 68.1689 85.4993 64.3058 85.5159 60.4427C85.5172 60.0054 85.4273 59.8408 84.9555 59.8574C83.8999 59.8934 82.8401 59.8435 81.7845 59.8795C81.3127 59.8961 81.2186 59.7342 81.2228 59.2956C81.2435 56.8134 81.2228 54.3311 81.2422 51.8503C81.2449 51.4283 81.1301 51.301 80.704 51.3093C79.4533 51.3342 78.2012 51.3134 76.9491 51.3093L76.9684 51.3273C76.9657 48.6306 76.9684 45.9339 76.9518 43.2386C76.9491 42.8774 77.0459 42.7598 77.4195 42.7612C79.9652 42.7764 82.5108 42.782 85.0552 42.7584C85.52 42.7543 85.5131 42.9812 85.5117 43.3105C85.5048 45.7692 85.5214 48.2293 85.4965 50.688C85.491 51.1889 85.6141 51.3536 86.1315 51.3314C87.1429 51.2885 88.1598 51.2844 89.1711 51.3314C89.7135 51.3577 89.7965 51.1529 89.7923 50.6742C89.7702 48.2362 89.7965 45.7983 89.7702 43.3617C89.7647 42.876 89.892 42.7404 90.3776 42.7557C91.6061 42.7944 92.8361 42.7737 94.0661 42.7778L94.0481 42.7584C94.0508 45.4136 94.0674 48.0674 94.0453 50.7226C94.0412 51.2069 94.1671 51.3328 94.6513 51.3287C97.3063 51.3065 99.9599 51.3231 102.615 51.3259L102.595 51.3079C102.598 52.5601 102.584 53.8123 102.615 55.0631C102.625 55.4892 102.496 55.6041 102.074 55.6013C99.614 55.582 97.1527 55.6041 94.6928 55.582C94.2044 55.5778 94.019 55.6774 94.0425 56.2101C94.0882 57.2437 94.0813 58.2828 94.0439 59.3178C94.0273 59.791 94.1933 59.8809 94.6291 59.8781C97.0891 59.8588 99.5504 59.8823 102.01 59.856C102.496 59.8505 102.634 59.9778 102.616 60.4634C102.578 61.5413 102.615 62.6219 102.598 63.6997C102.593 64.0263 102.674 64.1563 103.027 64.1494C104.17 64.1287 105.316 64.1287 106.458 64.1494C106.815 64.1563 106.889 64.018 106.884 63.697C106.869 62.5748 106.893 61.4527 106.871 60.3306C106.864 59.9584 106.983 59.8602 107.347 59.8602C112.742 59.8712 118.137 59.8698 123.532 59.8615C123.855 59.8615 123.99 59.9307 123.985 60.2877C123.964 61.4306 123.964 62.5762 123.985 63.7191C123.992 64.0733 123.86 64.1522 123.535 64.148C122.435 64.1314 121.334 64.1605 120.234 64.1328C119.809 64.1217 119.692 64.249 119.694 64.6724C119.71 67.3484 119.697 70.0243 119.694 72.7017L119.714 72.6837C118.506 72.6864 117.298 72.6615 116.093 72.7058C115.558 72.7252 115.41 72.5813 115.417 72.0375C115.448 69.6023 115.415 67.1644 115.443 64.7292C115.448 64.2297 115.299 64.1162 114.827 64.1328C113.772 64.1688 112.715 64.1605 111.659 64.1356C111.27 64.1259 111.135 64.2241 111.146 64.6351C111.175 65.7129 111.13 66.7922 111.166 67.8686C111.182 68.3404 111.018 68.4331 110.583 68.429C108.103 68.4096 105.624 68.429 103.145 68.411C102.737 68.4082 102.593 68.5009 102.595 68.9396C102.616 71.4398 102.616 73.9414 102.595 76.4416C102.593 76.8678 102.717 76.9854 103.136 76.9785C104.386 76.9549 105.636 76.9771 106.887 76.9799L106.869 76.9619C106.873 83.869 106.883 90.7761 106.866 97.6832C106.866 98.2214 106.998 98.3625 107.539 98.357C110.172 98.3293 112.805 98.3501 115.439 98.3529L115.419 98.3349C115.426 99.7655 115.433 101.195 115.44 102.626C112.769 102.623 110.097 102.628 107.424 102.61C107.026 102.608 106.855 102.682 106.869 103.132C106.902 104.231 106.894 105.331 106.872 106.429C106.865 106.797 106.979 106.902 107.345 106.901C109.888 106.887 112.431 106.886 114.973 106.901C115.35 106.904 115.442 106.778 115.436 106.421C115.415 105.149 115.424 103.878 115.421 102.608C118.026 102.612 120.633 102.641 123.236 102.601C123.887 102.591 124.022 102.787 123.99 103.389C123.939 104.377 123.957 105.371 123.985 106.36C123.997 106.775 123.884 106.916 123.452 106.904C122.376 106.873 121.298 106.915 120.223 106.883C119.786 106.871 119.686 107.02 119.693 107.429C119.714 108.678 119.696 109.927 119.693 111.176L119.712 111.158C118.44 111.161 117.167 111.178 115.894 111.158C115.526 111.153 115.417 111.264 115.421 111.632C115.439 112.905 115.422 114.177 115.421 115.45L115.439 115.431L115.44 115.427ZM89.784 96.1999C89.784 98.1425 89.7951 100.084 89.7757 102.026C89.7716 102.446 89.8352 102.627 90.3222 102.624C94.2487 102.603 98.1765 102.608 102.103 102.62C102.489 102.62 102.619 102.534 102.618 102.122C102.602 98.173 102.601 94.2241 102.618 90.2752C102.619 89.8615 102.486 89.7771 102.102 89.7785C98.1751 89.7909 94.2473 89.7951 90.3209 89.7743C89.8311 89.7716 89.7702 89.9556 89.7744 90.3734C89.7937 92.3147 89.7827 94.2573 89.7827 96.1999H89.784ZM96.1303 115.437C98.0949 115.437 100.058 115.417 102.023 115.449C102.525 115.457 102.636 115.302 102.619 114.832C102.584 113.797 102.584 112.759 102.619 111.724C102.634 111.269 102.503 111.146 102.046 111.15C99.5863 111.172 97.125 111.15 94.6651 111.171C94.2003 111.175 94.0245 111.085 94.0453 110.577C94.0882 109.544 94.0287 108.505 94.0716 107.47C94.0923 106.963 93.9208 106.859 93.4531 106.875C92.3961 106.909 91.3377 106.904 90.2807 106.876C89.8795 106.865 89.7716 106.985 89.7744 107.384C89.7923 109.887 89.7965 112.391 89.7716 114.896C89.7661 115.381 89.9459 115.449 90.3679 115.445C92.2882 115.424 94.2099 115.437 96.1303 115.437ZM94.037 64.137C92.7642 64.137 91.4899 64.148 90.2171 64.13C89.8781 64.1259 89.7716 64.2297 89.7771 64.57C89.7951 65.6922 89.8048 66.8157 89.773 67.9364C89.7605 68.3709 89.939 68.4262 90.3029 68.4193C91.3599 68.3999 92.4183 68.4428 93.4739 68.3999C93.9817 68.3792 94.0827 68.5535 94.0674 69.0198C94.0342 70.0977 94.0688 71.1783 94.0495 72.2561C94.0439 72.5979 94.1532 72.7003 94.4908 72.6947C95.6128 72.6768 96.7349 72.6754 97.8569 72.6947C98.2125 72.7003 98.3412 72.6117 98.3384 72.2312C98.3232 69.6839 98.3218 67.1381 98.3384 64.5908C98.3412 64.2061 98.2056 64.1259 97.8528 64.13C96.5799 64.148 95.3057 64.137 94.0328 64.137H94.037Z" fill="black"/>
<path d="M34.2244 34.22C34.2203 28.6786 34.2217 23.1371 34.2037 17.5943C34.2023 17.1709 34.3517 17.0976 34.7253 17.1059C35.8252 17.1266 36.9251 17.099 38.0236 17.1211C38.393 17.128 38.4995 17.0118 38.4954 16.6465C38.4788 15.3749 38.4954 14.102 38.4995 12.8304L38.4815 12.8484C39.7544 12.8443 41.0272 12.854 42.3001 12.8304C42.6722 12.8235 42.7774 12.9411 42.7705 13.3064C42.7483 14.3856 42.7843 15.4649 42.7525 16.5427C42.74 16.9855 42.8493 17.1405 43.317 17.1239C44.3518 17.0879 45.3895 17.146 46.423 17.099C46.9612 17.074 47.0483 17.2719 47.0469 17.7534C47.0289 21.5944 47.0483 25.4367 47.0234 29.2777C47.0207 29.8159 47.1521 29.9695 47.6958 29.9515C48.9022 29.9114 50.1114 29.9446 51.3207 29.9474L51.3027 29.928C51.3054 31.201 51.322 32.4739 51.3027 33.7468C51.2971 34.1149 51.4092 34.2256 51.7758 34.2187C53.0487 34.1951 54.3215 34.2048 55.5944 34.2021C55.5916 35.475 55.5999 36.7479 55.5764 38.0209C55.5695 38.3889 55.6815 38.4982 56.0495 38.4941C57.3224 38.4761 58.5952 38.4927 59.8681 38.4941L59.8487 38.4761C59.8515 39.7269 59.8736 40.9791 59.8487 42.2299C59.8404 42.6547 59.9649 42.7792 60.3883 42.7695C61.4882 42.7418 62.5895 42.7695 63.6894 42.7543C64.0145 42.7501 64.1459 42.8276 64.1404 43.1818C64.1197 44.3247 64.1197 45.469 64.1404 46.6119C64.1473 46.9661 64.0145 47.0449 63.6894 47.0394C62.5673 47.0242 61.4453 47.0477 60.3233 47.0256C59.9552 47.0187 59.8446 47.1293 59.8501 47.4974C59.8681 48.7703 59.8501 50.0433 59.8473 51.3162L59.8667 51.2982C57.2546 51.301 54.6425 51.3231 52.0318 51.2927C51.4382 51.2858 51.2916 51.4435 51.2944 52.0329C51.3151 57.4942 51.3027 62.9554 51.2999 68.4166L51.3179 68.3986C48.6421 68.4013 45.965 68.3958 43.2893 68.4166C42.8659 68.4193 42.7469 68.3003 42.7497 67.8769C42.7705 65.201 42.7649 62.5237 42.7677 59.8477L42.7497 59.8657C44.0212 59.8629 45.2912 59.8477 46.5613 59.8643C46.9183 59.8685 47.0483 59.7771 47.0414 59.3994C47.0179 58.2801 47.0179 57.1593 47.0414 56.04C47.0497 55.6622 46.9197 55.5709 46.5613 55.5751C45.2912 55.5917 44.0198 55.5751 42.7497 55.5737L42.7691 55.5917C42.7663 54.3395 42.7442 53.0873 42.7691 51.8351C42.7774 51.4062 42.6459 51.2872 42.2267 51.2982C41.1476 51.3259 40.0684 51.2913 38.9893 51.3162C38.5991 51.3245 38.4649 51.2263 38.476 50.8154C38.505 49.7154 38.5064 48.6126 38.476 47.5126C38.4635 47.0851 38.6309 47.0228 39.0017 47.0256C41.4838 47.0394 43.9672 47.0173 46.4493 47.0449C46.9501 47.0505 47.0483 46.8983 47.0469 46.4292C47.0276 42.5426 47.0289 38.6574 47.0469 34.7707C47.0497 34.3169 46.9307 34.1813 46.4742 34.1965C45.46 34.2311 44.4445 34.1772 43.4318 34.22C42.9033 34.2422 42.7442 34.1107 42.7483 33.5573C42.7746 29.7578 42.7414 25.957 42.7815 22.1575C42.7884 21.4712 42.5823 21.3343 41.9583 21.3688C40.9899 21.4214 40.0145 21.4076 39.0446 21.3716C38.5798 21.3536 38.4746 21.5044 38.4774 21.95C38.4954 25.8145 38.4774 29.679 38.5009 33.5434C38.5037 34.0775 38.3791 34.2422 37.8313 34.22C36.6235 34.173 35.4142 34.1993 34.205 34.1951L34.223 34.2131L34.2244 34.22Z" fill="black"/>
<path d="M68.4196 85.5017C65.7439 85.5044 63.0682 85.4989 60.3924 85.521C59.9691 85.5238 59.8501 85.4062 59.8528 84.9828C59.8722 82.5227 59.8501 80.0626 59.8722 77.6011C59.8764 77.1168 59.7823 76.9245 59.2469 76.948C58.2134 76.9951 57.1743 76.9868 56.1408 76.9508C55.6704 76.9342 55.575 77.0947 55.5777 77.5347C55.5985 79.9948 55.5736 82.4549 55.5999 84.9164C55.6054 85.3979 55.485 85.5446 54.9953 85.5252C53.9825 85.4851 52.967 85.4892 51.9529 85.5238C51.4673 85.5404 51.275 85.4339 51.2999 84.8984C51.3469 83.8648 51.2999 82.8271 51.3206 81.7908C51.3289 81.402 51.2667 81.2221 50.806 81.2276C48.281 81.2511 45.7561 81.2456 43.2312 81.2318C42.8673 81.2304 42.7483 81.3314 42.7566 81.7022C42.7787 82.7593 42.7414 83.8178 42.7746 84.8749C42.7898 85.3605 42.6847 85.5529 42.1492 85.528C41.1157 85.4809 40.0767 85.539 39.0432 85.5031C38.5728 85.4864 38.4677 85.6456 38.4801 86.0869C38.5119 87.1219 38.5175 88.1596 38.4787 89.1946C38.4608 89.6802 38.5991 89.8048 39.0847 89.802C42.9254 89.7812 46.7675 89.802 50.6081 89.7785C51.1477 89.7757 51.3649 89.8643 51.3303 90.4689C51.2708 91.5011 51.2943 92.5402 51.3234 93.5752C51.3359 93.9889 51.1934 94.0747 50.8073 94.0733C48.3253 94.0581 45.8433 94.0788 43.3626 94.0539C42.8839 94.0498 42.7317 94.1632 42.7525 94.6572C42.7926 95.67 42.7884 96.6856 42.7552 97.6998C42.74 98.1827 42.8396 98.3792 43.3792 98.3542C44.4127 98.3072 45.4517 98.3653 46.4852 98.3293C46.9528 98.3127 47.0525 98.4691 47.0497 98.9105C47.0331 101.564 47.0483 104.219 47.0525 106.875L47.0704 106.854C45.7561 106.866 44.4417 106.868 43.1274 106.895C42.7691 106.904 42.7621 106.713 42.7635 106.451C42.7704 105.351 42.7483 104.251 42.7746 103.151C42.7843 102.738 42.6764 102.592 42.2419 102.605C41.2071 102.637 40.1694 102.58 39.1373 102.628C38.5742 102.656 38.458 102.461 38.4787 101.941C38.5202 100.907 38.4718 99.8693 38.5009 98.8357C38.5119 98.4331 38.3902 98.3196 37.9931 98.3307C36.9582 98.357 35.922 98.31 34.8885 98.3515C34.3641 98.3722 34.1995 98.2477 34.2036 97.6915C34.2299 93.8519 34.2064 90.0123 34.2313 86.1727C34.2355 85.6317 34.0971 85.4837 33.5575 85.5017C32.3511 85.5418 31.1419 85.5086 29.9341 85.5058L29.9521 85.5252V81.2318L29.9341 81.2498C32.6098 81.247 35.2856 81.2345 37.9613 81.2498C38.3833 81.2525 38.5133 81.1377 38.5023 80.7115C38.4732 79.6544 38.5133 78.5959 38.4829 77.5402C38.4704 77.1016 38.5714 76.9384 39.0432 76.955C40.0989 76.9909 41.1586 76.9411 42.2143 76.9771C42.6847 76.9937 42.7884 76.8332 42.776 76.3932C42.7455 75.3153 42.7801 74.2347 42.758 73.1569C42.7511 72.7888 42.8631 72.6768 43.2312 72.6837C44.3311 72.7058 45.4323 72.7155 46.5322 72.6795C46.993 72.6643 47.0552 72.8525 47.0483 73.2427C47.0276 74.2998 47.0663 75.3582 47.0303 76.414C47.0137 76.8858 47.177 76.9882 47.6156 76.9743C48.6504 76.9439 49.6881 76.937 50.7229 76.9771C51.2113 76.9951 51.3331 76.8526 51.3289 76.3697C51.3068 73.7159 51.3234 71.0607 51.3262 68.4069L51.3082 68.4249C53.9812 68.4221 56.6527 68.4318 59.3257 68.4041C59.8086 68.3986 59.886 68.5729 59.8764 68.9977C59.8487 70.0741 59.8819 71.1534 59.8598 72.2298C59.8515 72.6034 59.976 72.703 60.3371 72.6975C61.6085 72.6754 62.88 72.6837 64.1515 72.6809C64.1487 75.3569 64.1542 78.0342 64.1335 80.7101C64.1307 81.1321 64.2455 81.2594 64.6717 81.2511C65.9224 81.2262 67.1745 81.247 68.4265 81.2511L68.4086 81.2331V85.5266L68.4265 85.5072L68.4196 85.5017Z" fill="black"/>
<path d="M25.6728 85.5017C24.4443 85.5044 23.2157 85.4851 21.9885 85.5224C21.5112 85.5363 21.3714 85.4145 21.377 84.9219C21.4047 82.4646 21.3742 80.0086 21.4019 77.5513C21.4074 77.0601 21.2704 76.937 20.7917 76.9494C19.5646 76.9813 18.336 76.9536 17.1074 76.9494L17.1254 76.9674C17.1213 75.7374 17.0922 74.5059 17.1268 73.2773C17.1406 72.7861 16.9954 72.6726 16.5167 72.674C11.251 72.692 5.98526 72.6768 0.719556 72.6975C0.17583 72.7003 -0.00541169 72.602 0.000122415 72.0057C0.0319435 68.1647 0.0277929 64.3224 0.00288947 60.4814C0.000122415 59.9584 0.155077 59.8339 0.65038 59.8505C1.70601 59.8865 2.76579 59.8477 3.8228 59.8685C4.18667 59.8754 4.30704 59.7716 4.29874 59.398C4.2766 58.298 4.30427 57.1967 4.28352 56.0967C4.2766 55.7189 4.35408 55.564 4.77605 55.575C5.87596 55.6055 6.97724 55.6055 8.07715 55.575C8.49221 55.564 8.58213 55.7065 8.57383 56.0911C8.55031 57.1911 8.57937 58.2925 8.55861 59.3925C8.5517 59.7592 8.66099 59.8726 9.0304 59.8671C10.3032 59.8491 11.5761 59.8671 12.8503 59.8685L12.8323 59.8491C12.8351 61.0791 12.8143 62.3092 12.8531 63.5379C12.8683 64.0221 12.7341 64.1508 12.2485 64.1453C9.87573 64.119 7.50298 64.1328 5.13024 64.1328C4.57221 64.1328 4.2932 64.4225 4.2932 65.0017C4.2932 65.908 4.33333 66.8157 4.27798 67.7192C4.24201 68.3017 4.42464 68.4249 4.98773 68.4221C10.2078 68.3986 15.4278 68.4221 20.6479 68.3917C21.2954 68.3875 21.4365 68.5729 21.406 69.1789C21.3535 70.1904 21.406 71.206 21.3839 72.2202C21.3756 72.5896 21.4904 72.6989 21.8571 72.692C23.1299 72.6685 24.4028 72.6781 25.6742 72.674C25.6714 73.9469 25.6811 75.2213 25.6576 76.4942C25.6507 76.8623 25.7628 76.9743 26.1308 76.9674C27.4036 76.9439 28.6765 76.9536 29.9507 76.9508C29.9438 78.3815 29.9382 79.8122 29.9313 81.2428L29.9493 81.2249C28.6765 81.2276 27.4036 81.2442 26.1308 81.2249C25.7628 81.2193 25.6535 81.33 25.6576 81.6981C25.6756 82.971 25.659 84.2439 25.6576 85.5169L25.6756 85.4975L25.6728 85.5017Z" fill="black"/>
<path d="M17.106 59.8726C18.3774 59.8698 19.6489 59.8532 20.9204 59.8698C21.2815 59.874 21.3991 59.7757 21.3977 59.4022C21.3811 55.2858 21.3811 51.1695 21.3783 47.0518L21.3603 47.0726C22.7978 47.0643 24.2367 47.0546 25.6742 47.0463L25.6562 47.0269C25.6589 48.2985 25.6742 49.5687 25.6576 50.8388C25.6534 51.1958 25.7447 51.3259 26.1224 51.319C27.2417 51.2954 28.3623 51.2954 29.4816 51.319C29.8593 51.3273 29.9506 51.1972 29.9465 50.8388C29.9299 49.5687 29.9465 48.2971 29.9479 47.0269L29.9299 47.0463C31.1806 47.0435 32.4313 47.056 33.6806 47.0269C34.0998 47.0173 34.2257 47.1349 34.223 47.5624C34.2036 50.0197 34.2326 52.4785 34.1994 54.9358C34.1925 55.4906 34.3572 55.6027 34.8815 55.5972C37.5116 55.5723 40.1417 55.5902 42.7718 55.593L42.7524 55.575V59.8684L42.7704 59.8505C40.1196 59.8532 37.4673 59.8684 34.8165 59.8491C34.3502 59.8463 34.1787 59.939 34.1994 60.444C34.2423 61.4984 34.2008 62.5568 34.2188 63.6126C34.2243 63.9709 34.1787 64.1466 33.7415 64.1453C28.3527 64.13 22.9638 64.1314 17.575 64.1425C17.2028 64.1425 17.1004 64.0277 17.1074 63.6665C17.1295 62.395 17.1212 61.1234 17.124 59.8518L17.106 59.8712V59.8726ZM27.7384 59.8629C28.3208 59.8629 28.9033 59.8408 29.483 59.8712C29.8662 59.8906 29.9506 59.7411 29.9437 59.3883C29.9243 58.2676 29.9257 57.1468 29.9437 56.0261C29.9492 55.6954 29.8579 55.575 29.5107 55.5806C28.3693 55.5999 27.2265 55.6013 26.0851 55.5806C25.7309 55.5736 25.6534 55.7065 25.6576 56.0302C25.6728 57.1717 25.6714 58.3146 25.6576 59.4575C25.6534 59.7591 25.7406 59.8795 26.0574 59.8684C26.6163 59.8477 27.178 59.8629 27.7384 59.8629Z" fill="black"/>
<path d="M81.2435 89.7785C79.9942 89.7812 78.7448 89.7688 77.4955 89.7965C77.0846 89.8048 76.9352 89.7024 76.949 89.2665C76.9808 88.1901 76.9379 87.1122 76.9698 86.0357C76.9822 85.6013 76.837 85.4975 76.4247 85.5044C75.1753 85.5266 73.926 85.5072 72.6767 85.5044L72.6947 85.5238C72.6919 84.2509 72.6753 82.9779 72.6947 81.705C72.7002 81.3369 72.5895 81.2276 72.2215 81.2318C70.9487 81.2498 69.6758 81.2332 68.403 81.2318L68.421 81.2498C68.414 78.3939 68.4085 75.5381 68.4016 72.6823C69.6731 72.6851 70.9431 72.6768 72.2146 72.6975C72.5715 72.703 72.703 72.6117 72.6947 72.2326C72.6712 71.1133 72.6712 69.9911 72.6947 68.8718C72.703 68.494 72.5715 68.4013 72.2146 68.4069C70.9445 68.4276 69.6731 68.4193 68.4016 68.4221C68.4044 67.1727 68.4237 65.9232 68.4016 64.6738C68.3947 64.2615 68.4971 64.1148 68.9329 64.1273C70.0092 64.1577 71.087 64.1162 72.1634 64.148C72.5992 64.1605 72.7016 64.0138 72.6947 63.6015C72.6725 62.3521 72.6919 61.1027 72.6947 59.8532L72.6767 59.8712C73.9495 59.8685 75.2238 59.8781 76.4966 59.8546C76.866 59.8477 76.9753 59.9612 76.9684 60.3278C76.9462 61.4071 76.9808 62.4863 76.9504 63.5641C76.9379 64.0055 77.0445 64.1633 77.5135 64.1467C78.5913 64.1107 79.6718 64.1467 80.7496 64.1287C81.0899 64.1231 81.2518 64.1868 81.2421 64.5811C81.2172 65.7032 81.22 66.8254 81.2421 67.9475C81.249 68.3197 81.1314 68.4249 80.7662 68.4179C79.7092 68.3958 78.6508 68.4359 77.5937 68.3999C77.0998 68.3833 76.9421 68.5051 76.9449 69.0295C76.9698 72.8926 76.9698 76.7557 76.9449 80.6188C76.9421 81.1487 77.1095 81.2498 77.5965 81.2456C80.0564 81.2221 82.5163 81.2456 84.9776 81.2262C85.3996 81.2235 85.5283 81.3383 85.5186 81.7645C85.4881 83.0153 85.5034 84.2675 85.5006 85.5197L85.5186 85.5017C84.2457 85.5044 82.9729 85.521 81.7 85.5017C81.332 85.4961 81.2227 85.6068 81.2269 85.9749C81.2449 87.2478 81.2283 88.5208 81.2269 89.7937L81.2462 89.7757L81.2435 89.7785Z" fill="black"/>
<path d="M106.873 38.4982C108.304 38.4982 109.734 38.4982 111.165 38.4982L111.147 38.4789C111.15 39.7089 111.177 40.9403 111.144 42.169C111.13 42.6574 111.269 42.7792 111.752 42.775C114.405 42.7529 117.06 42.7695 119.714 42.7723L119.694 42.7543C119.697 45.4067 119.714 48.0605 119.694 50.713C119.69 51.1862 119.797 51.3453 120.295 51.3259C121.351 51.2844 122.408 51.3259 123.465 51.3065C123.833 51.2996 124.004 51.3619 123.992 51.7922C123.96 52.9129 123.97 54.0351 123.988 55.1558C123.993 55.4962 123.888 55.5972 123.549 55.5944C120.983 55.582 118.416 55.5806 115.85 55.5944C115.491 55.5958 115.422 55.4588 115.426 55.1406C115.442 54.0198 115.418 52.8977 115.44 51.7756C115.447 51.4062 115.331 51.2996 114.966 51.3051C113.694 51.3217 112.421 51.3051 111.148 51.3024L111.166 51.3218C111.164 50.0502 111.148 48.78 111.165 47.5098C111.169 47.1529 111.078 47.0228 110.7 47.0297C109.581 47.0532 108.46 47.0532 107.341 47.0297C106.963 47.0214 106.872 47.1515 106.876 47.5098C106.893 48.78 106.876 50.0516 106.875 51.3218L106.893 51.3024C105.462 51.3024 104.03 51.3024 102.6 51.3024L102.619 51.3204C102.616 50.0709 102.597 48.8215 102.619 47.5721C102.626 47.1598 102.524 47.0131 102.088 47.0256C101.011 47.056 99.9336 47.0145 98.8572 47.0463C98.4214 47.0588 98.3176 46.9121 98.3259 46.4998C98.3536 45.2504 98.3411 44.0009 98.3439 42.7515L98.3259 42.7695C101.002 42.7667 103.677 42.7543 106.353 42.7695C106.775 42.7723 106.902 42.6561 106.894 42.2313C106.869 40.9805 106.89 39.7283 106.894 38.4761L106.876 38.4955L106.873 38.4982Z" fill="black"/>
<path d="M76.9684 12.8277C75.6956 12.8304 74.4227 12.8221 73.1499 12.8457C72.7819 12.8526 72.6698 12.7405 72.6767 12.3725C72.6989 11.3375 72.6532 10.2998 72.6975 9.26619C72.721 8.71827 72.5993 8.54394 72.0043 8.5467C66.7622 8.57438 61.5186 8.55224 56.2764 8.57714C55.7022 8.57991 55.5445 8.43878 55.5722 7.86872C55.622 6.85729 55.604 5.84032 55.5777 4.8275C55.5667 4.41932 55.6663 4.26436 56.1062 4.27819C57.1619 4.31002 58.2217 4.25882 59.2773 4.30171C59.7837 4.32247 59.886 4.14951 59.8722 3.68323C59.8376 2.62752 59.8791 1.56904 59.8528 0.511941C59.8431 0.112071 59.9607 0.00276364 60.3592 0.00553091C62.8827 0.0235182 65.4077 0.0249018 67.9326 0.00553091C68.3601 0.00138001 68.4252 0.161882 68.4182 0.531312C68.3975 1.60916 68.4321 2.68978 68.4016 3.76763C68.3892 4.20348 68.5358 4.31002 68.9481 4.29895C70.0259 4.27266 71.1064 4.27404 72.1842 4.29895C72.5757 4.30863 72.7072 4.20486 72.6961 3.79669C72.667 2.71884 72.7016 1.6396 72.6781 0.560368C72.6698 0.161882 72.7514 0.00276364 73.1997 0.00414728C77.1262 0.0221345 81.0526 0.0207509 84.979 0.00414728C85.4024 0.00276364 85.5283 0.118989 85.5186 0.542381C85.4882 1.79319 85.502 3.04537 85.4992 4.29618L85.5186 4.27819C82.8636 4.28096 80.21 4.29756 77.555 4.27543C77.0694 4.27127 76.9449 4.39719 76.9491 4.88146C76.9712 7.53665 76.9546 10.1905 76.9518 12.8457L76.9698 12.8263L76.9684 12.8277Z" fill="black"/>
<path d="M81.2436 29.928C79.813 29.928 78.3824 29.928 76.9519 29.928L76.9698 29.9474C76.9671 27.2742 76.9602 24.5996 76.9657 21.9264C76.9657 21.5916 76.9657 21.373 76.5064 21.3771C73.9621 21.4006 71.4178 21.3951 68.8748 21.3799C68.5027 21.3771 68.4003 21.492 68.4058 21.8559C68.4224 23.1274 68.4072 24.4004 68.4044 25.6719L68.4224 25.6539C66.9919 25.6595 65.5599 25.6664 64.1293 25.6719C64.1321 24.4225 64.121 23.1731 64.1487 21.9237C64.1584 21.5113 64.0532 21.3647 63.6174 21.3771C62.5411 21.4076 61.4633 21.3661 60.3869 21.3979C59.9511 21.4103 59.8473 21.2637 59.8556 20.8513C59.8833 19.6019 59.8708 18.3525 59.8736 17.1031L59.8556 17.1225C61.1285 17.1197 62.3999 17.1031 63.6714 17.1197C64.0353 17.1238 64.1542 17.0201 64.1459 16.6492C64.1238 15.5714 64.157 14.4922 64.128 13.4143C64.1169 12.9826 64.2054 12.8083 64.6841 12.8249C65.7605 12.8622 66.841 12.8553 67.9174 12.8263C68.3228 12.8152 68.4293 12.9425 68.421 13.3368C68.3961 14.4354 68.4252 15.5368 68.4058 16.6354C68.4003 16.9882 68.4847 17.1211 68.8665 17.1183C71.4108 17.1017 73.9551 17.1031 76.4994 17.1183C76.8716 17.1211 76.974 17.0048 76.9685 16.6423C76.9519 15.3708 76.9671 14.0978 76.9685 12.8249L76.9505 12.8443H81.2436L81.2242 12.8263C81.227 15.4773 81.2422 18.1284 81.2242 20.7794C81.2214 21.2429 81.31 21.4186 81.8177 21.3979C82.8941 21.355 83.9732 21.3993 85.0496 21.3771C85.4232 21.3688 85.5228 21.4934 85.5173 21.8545C85.4951 23.126 85.5034 24.3976 85.5007 25.6692L85.52 25.6512C84.2472 25.6539 82.9744 25.6705 81.7015 25.6512C81.3335 25.6456 81.2242 25.7563 81.2283 26.1244C81.2463 27.3973 81.2297 28.6703 81.2283 29.9432L81.2463 29.9238L81.2436 29.928Z" fill="black"/>
<path d="M59.8514 51.3217C62.5064 51.319 65.16 51.3024 67.815 51.3245C68.2965 51.3287 68.4417 51.2083 68.4238 50.7199C68.385 49.6642 68.4265 48.6043 68.4044 47.5472C68.3961 47.1667 68.4791 47.0159 68.8983 47.0269C69.9982 47.0574 71.0995 47.0574 72.1994 47.0269C72.6172 47.0159 72.703 47.1625 72.6947 47.5444C72.6712 48.6444 72.7002 49.7458 72.6795 50.8458C72.6726 51.2138 72.7846 51.3245 73.1527 51.319C74.4255 51.301 75.6983 51.3162 76.9726 51.319L76.9532 51.301C76.956 52.5504 76.9435 53.7998 76.9712 55.0493C76.9795 55.4616 76.8757 55.6082 76.4399 55.5958C75.3635 55.5653 74.2858 55.6069 73.2094 55.575C72.7736 55.5626 72.6712 55.7092 72.6781 56.1216C72.7002 57.371 72.6809 58.6204 72.6781 59.8698L72.6961 59.8518C71.4232 59.8546 70.149 59.8449 68.8762 59.8685C68.5068 59.8754 68.3975 59.7619 68.4044 59.3952C68.4265 58.316 68.3919 57.2368 68.4224 56.1589C68.4348 55.7175 68.3283 55.5598 67.8593 55.5764C66.8244 55.6124 65.7868 55.6207 64.7533 55.5737C64.2165 55.5487 64.1238 55.7438 64.1279 56.2267C64.1501 58.6868 64.1334 61.1469 64.1431 63.6084C64.1445 63.9585 64.1182 64.1522 63.6714 64.148C61.1257 64.1259 58.5786 64.1328 56.0315 64.1425C55.7078 64.1425 55.5791 64.0692 55.5805 63.715C55.5943 61.1469 55.5943 58.5789 55.5805 56.0095C55.5791 55.6567 55.7036 55.575 56.0301 55.5806C57.13 55.5972 58.2313 55.5681 59.3312 55.5958C59.7546 55.6069 59.8805 55.4823 59.8722 55.0576C59.8473 53.8068 59.868 52.5546 59.8722 51.3024L59.8528 51.3204L59.8514 51.3217Z" fill="black"/>
<path d="M47.0469 111.171C47.0538 109.732 47.0594 108.292 47.0663 106.853C47.0663 106.853 47.0483 106.873 47.0483 106.872C48.3212 106.876 49.594 106.868 50.8668 106.895C51.2625 106.904 51.322 106.74 51.3165 106.401C51.2999 105.324 51.3345 104.243 51.2985 103.165C51.2833 102.696 51.441 102.59 51.8823 102.602C52.9172 102.634 53.9535 102.638 54.9884 102.601C55.4712 102.583 55.5999 102.717 55.5971 103.205C55.5764 107.046 55.6013 110.886 55.5694 114.727C55.5639 115.345 55.7604 115.453 56.3221 115.45C60.1406 115.427 63.9591 115.448 67.7777 115.427C68.2771 115.424 68.4432 115.542 68.421 116.062C68.3781 117.075 68.374 118.092 68.421 119.103C68.4473 119.646 68.2425 119.738 67.7638 119.724C66.7082 119.693 65.6498 119.73 64.5928 119.706C64.2179 119.698 64.1182 119.824 64.1252 120.185C64.1459 121.285 64.1169 122.387 64.1404 123.487C64.1487 123.875 64.0505 124.003 63.6409 124C61.1174 123.981 58.5924 123.981 56.0689 124C55.6511 124.003 55.5681 123.862 55.575 123.481C55.5971 122.381 55.5694 121.28 55.5902 120.18C55.5971 119.812 55.485 119.702 55.117 119.706C53.8442 119.724 52.5713 119.706 51.2985 119.704L51.3165 119.723C51.3137 117.047 51.3013 114.371 51.3165 111.695C51.3193 111.273 51.203 111.146 50.7783 111.154C49.5276 111.179 48.2755 111.158 47.0234 111.154L47.0428 111.172L47.0469 111.171Z" fill="black"/>
<path d="M8.57658 47.0449C8.57243 45.772 8.58211 44.4991 8.55859 43.2275C8.55168 42.8581 8.66513 42.7474 9.03176 42.7557C10.0888 42.7778 11.1458 42.7405 12.2014 42.7737C12.6884 42.7889 12.86 42.6796 12.8544 42.1483C12.8226 39.7117 12.8572 37.2737 12.8282 34.8357C12.8226 34.3169 12.972 34.1841 13.4729 34.202C14.5064 34.2408 15.544 34.2311 16.5789 34.2048C16.9912 34.1937 17.1392 34.2989 17.1268 34.7361C17.0949 35.7918 17.1461 36.8517 17.1033 37.906C17.0825 38.4152 17.2582 38.5134 17.7231 38.4996C18.8008 38.4664 19.88 38.4941 20.9578 38.4858C21.2275 38.4844 21.3991 38.5051 21.3963 38.8566C21.3756 41.5948 21.3714 44.3344 21.3604 47.074C21.3604 47.074 21.3783 47.0532 21.3783 47.0546C17.5363 47.0505 13.6956 47.0449 9.85357 47.0394C9.42191 47.0394 8.99025 47.0325 8.55859 47.0283L8.57658 47.0463V47.0449Z" fill="black"/>
<path d="M38.4995 12.8304C37.2266 12.8332 35.9524 12.8235 34.6796 12.8457C34.3129 12.8526 34.2036 12.7419 34.2064 12.3738C34.2216 9.84871 34.2258 7.32358 34.2023 4.79845C34.1981 4.34046 34.3724 4.27958 34.764 4.28235C37.2239 4.29619 39.6852 4.27266 42.1451 4.3031C42.6736 4.31002 42.7898 4.14399 42.7732 3.6528C42.7386 2.5957 42.7774 1.53722 42.7552 0.480124C42.7469 0.112077 42.859 2.48615e-06 43.2284 0.00692066C44.3504 0.0290588 45.4725 0.0249079 46.5945 0.00830429C46.9196 0.00415339 47.0469 0.0830206 47.0442 0.437231C47.0303 3.00526 47.0276 5.57466 47.0455 8.14269C47.0483 8.57162 46.8352 8.56885 46.5281 8.56746C44.046 8.56055 41.564 8.57853 39.082 8.55225C38.5963 8.54671 38.4621 8.67262 38.4746 9.15966C38.5092 10.3883 38.4815 11.6198 38.4801 12.8498L38.4981 12.8318L38.4995 12.8304Z" fill="black"/>
<path d="M115.421 85.503C115.423 86.7538 115.444 88.0046 115.421 89.2554C115.412 89.6761 115.531 89.8006 115.958 89.7964C118.416 89.7771 120.875 89.8061 123.332 89.7729C123.889 89.766 124.012 89.9348 123.992 90.4578C123.95 91.4914 123.961 92.5277 123.988 93.5627C123.997 93.9598 123.887 94.0816 123.483 94.0719C122.448 94.0442 121.41 94.1065 120.378 94.0456C119.766 94.0096 119.671 94.2351 119.692 94.7706C119.732 95.8042 119.688 96.8405 119.711 97.8755C119.719 98.2477 119.598 98.3515 119.235 98.3445C117.964 98.3224 116.691 98.3307 115.419 98.3279L115.439 98.3459C115.436 97.0965 115.417 95.8471 115.439 94.599C115.446 94.1881 115.346 94.0387 114.909 94.0525C113.832 94.0843 112.756 94.0525 111.678 94.0691C111.323 94.0746 111.14 94.0331 111.144 93.5931C111.166 91.0514 111.162 88.5111 111.147 85.9693C111.144 85.5916 111.272 85.5003 111.627 85.5058C112.897 85.5266 114.169 85.5182 115.439 85.5224L115.419 85.5044L115.421 85.503Z" fill="black"/>
<path d="M76.9712 111.154C75.744 111.157 74.5155 111.138 73.2883 111.172C72.8207 111.186 72.6519 111.081 72.6712 110.577C72.7141 109.523 72.6643 108.466 72.6934 107.411C72.7058 106.983 72.5689 106.873 72.151 106.877C69.6745 106.895 67.198 106.872 64.7215 106.9C64.2262 106.905 64.1086 106.761 64.1238 106.287C64.1612 105.061 64.1418 103.832 64.1459 102.605L64.128 102.623C65.3787 102.619 66.6308 102.598 67.8815 102.623C68.3076 102.631 68.4293 102.504 68.4197 102.082C68.392 100.982 68.4197 99.8818 68.4044 98.7804C68.4003 98.4552 68.4791 98.3238 68.8333 98.3307C69.9761 98.3515 71.1203 98.3515 72.2631 98.3307C72.6173 98.3238 72.6961 98.4566 72.6906 98.7818C72.6754 99.9039 72.6989 101.026 72.6768 102.147C72.6698 102.513 72.7792 102.626 73.1486 102.621C74.4214 102.605 75.6942 102.621 76.9671 102.624L76.9491 102.606C76.9491 105.462 76.9519 108.318 76.9532 111.174L76.9712 111.156V111.154Z" fill="black"/>
<path d="M119.696 72.6961C120.969 72.6934 122.24 72.7017 123.513 72.6795C123.877 72.6726 123.989 72.7778 123.988 73.1486C123.975 77.1168 123.975 81.0851 123.988 85.0534C123.988 85.4311 123.864 85.5196 123.507 85.5183C120.812 85.503 118.116 85.5058 115.421 85.503L115.44 85.521C115.437 82.8479 115.447 80.1761 115.419 77.5029C115.414 77.02 115.59 76.9425 116.013 76.9522C117.089 76.9799 118.168 76.9467 119.245 76.9688C119.618 76.9771 119.717 76.8526 119.712 76.4914C119.696 75.2199 119.711 73.9483 119.714 72.6768L119.694 72.6947L119.696 72.6961Z" fill="black"/>
<path d="M51.3206 29.9474C51.3179 24.4253 51.3179 18.9032 51.304 13.3811C51.304 12.9799 51.3815 12.8235 51.827 12.8277C54.3284 12.8498 56.8312 12.8484 59.3326 12.8277C59.7587 12.8249 59.8791 12.948 59.8694 13.3687C59.8404 14.6195 59.8542 15.8703 59.8514 17.1211L59.8694 17.1017C58.6173 17.1045 57.3652 17.1252 56.1145 17.1017C55.6884 17.0934 55.575 17.2221 55.5777 17.6427C55.5957 21.7438 55.5929 25.8449 55.5957 29.946C54.1651 29.9391 52.7346 29.9335 51.304 29.9266L51.322 29.946L51.3206 29.9474Z" fill="black"/>
<path d="M51.3027 119.702C51.3054 120.974 51.2971 122.247 51.3193 123.517C51.3248 123.878 51.2252 123.994 50.8516 123.994C45.4628 123.983 40.074 123.983 34.6851 123.994C34.3282 123.994 34.2037 123.907 34.205 123.529C34.2203 120.986 34.2203 118.442 34.205 115.899C34.2023 115.527 34.3185 115.424 34.681 115.431C35.9524 115.453 37.2239 115.445 38.4954 115.449L38.4774 115.43C38.4801 116.639 38.5133 117.848 38.4732 119.055C38.4552 119.599 38.6102 119.729 39.147 119.726C43.2049 119.705 47.2614 119.719 51.3193 119.722L51.3013 119.702H51.3027Z" fill="black"/>
<path d="M94.066 42.7723C94.0632 40.0977 94.0688 37.4231 94.0494 34.75C94.0466 34.339 94.1449 34.202 94.5807 34.2034C98.5057 34.22 102.431 34.22 106.356 34.2034C106.783 34.202 106.901 34.3266 106.891 34.7458C106.862 35.9966 106.876 37.2474 106.873 38.4982L106.891 38.4789C104.216 38.4816 101.54 38.4941 98.8641 38.4789C98.4421 38.4761 98.3148 38.5923 98.3231 39.0171C98.348 40.2679 98.3273 41.5201 98.3231 42.7723L98.3411 42.7543H94.048L94.066 42.7737V42.7723Z" fill="black"/>
<path d="M85.4993 25.6719C86.7721 25.6692 88.045 25.6789 89.3164 25.6553C89.6803 25.6484 89.7937 25.755 89.791 26.1258C89.7758 28.6703 89.7758 31.2162 89.791 33.7607C89.7937 34.1467 89.6554 34.2256 89.3054 34.22C88.2055 34.2007 87.1056 34.2311 86.0057 34.2034C85.6058 34.1938 85.4896 34.31 85.4993 34.7098C85.5256 35.7877 85.4924 36.8669 85.5173 37.9448C85.527 38.3488 85.437 38.5107 84.9915 38.4982C83.893 38.465 82.7917 38.4719 81.6918 38.4955C81.3141 38.5038 81.2242 38.3737 81.227 38.0153C81.2422 35.3186 81.2394 32.6233 81.2422 29.9266L81.2242 29.946C82.497 29.9432 83.7699 29.9266 85.0427 29.946C85.4107 29.9515 85.52 29.8408 85.5159 29.4728C85.4979 28.1998 85.5145 26.9269 85.5159 25.654L85.4965 25.6719H85.4993Z" fill="black"/>
<path d="M76.9504 29.928C76.9532 31.2009 76.9435 32.4753 76.967 33.7482C76.9739 34.1176 76.8605 34.2214 76.4939 34.22C72.3709 34.2048 68.2494 34.2062 64.1265 34.2034L64.1445 34.2228C64.139 32.7921 64.132 31.3601 64.1265 29.9294C65.3994 29.9321 66.6722 29.9238 67.945 29.9474C68.3131 29.9543 68.4224 29.8422 68.4182 29.4742C68.4002 28.2012 68.4168 26.9283 68.4182 25.6553L68.4002 25.6733C69.6496 25.6705 70.8989 25.683 72.1482 25.6553C72.5605 25.647 72.7071 25.7508 72.6947 26.1866C72.6643 27.2631 72.7058 28.341 72.6739 29.4174C72.6615 29.8533 72.8081 29.9557 73.2204 29.9487C74.4698 29.9266 75.7191 29.946 76.9684 29.9487L76.9504 29.9294V29.928Z" fill="black"/>
<path d="M4.32126 34.2131C5.55131 34.2131 6.78275 34.2353 8.01142 34.202C8.4777 34.1896 8.58978 34.339 8.57733 34.7832C8.5455 35.8612 8.55381 36.9419 8.57456 38.0198C8.58148 38.3837 8.47632 38.5041 8.10412 38.4958C7.04702 38.4723 5.98854 38.511 4.93144 38.4778C4.44717 38.4626 4.25346 38.565 4.27698 39.1019C4.32402 40.1355 4.26591 41.1747 4.30189 42.2084C4.31849 42.6775 4.16076 42.7854 3.71938 42.7716C2.64152 42.7411 1.5609 42.7481 0.483047 42.7688C0.116383 42.7757 0.00707588 42.6664 0.00845951 42.297C0.0236795 39.7495 0.0236795 37.2034 0.00845951 34.6559C0.00569224 34.2629 0.159276 34.1993 0.501034 34.2034C1.77398 34.22 3.04831 34.2103 4.32126 34.2103V34.2131Z" fill="black"/>
<path d="M72.677 85.5017C72.6798 88.1751 72.6742 90.8498 72.6936 93.5232C72.6964 93.9314 72.6037 94.085 72.1651 94.0726C71.0872 94.0408 70.008 94.0408 68.9315 94.0726C68.4915 94.085 68.4002 93.9314 68.403 93.5232C68.4223 90.8498 68.4168 88.1751 68.4196 85.5017L68.4016 85.521H72.695L72.677 85.5017Z" fill="black"/>
<path d="M38.4967 115.447C38.4967 114.016 38.4981 112.585 38.4995 111.154L38.4815 111.172C41.3373 111.172 44.1932 111.172 47.049 111.171L47.0296 111.153C47.0324 112.405 47.0185 113.657 47.0476 114.908C47.0573 115.335 46.93 115.449 46.508 115.447C43.832 115.426 41.1561 115.431 38.4801 115.429L38.4981 115.448L38.4967 115.447Z" fill="black"/>
<path d="M34.2072 34.202C34.2072 35.6328 34.2044 37.065 34.203 38.4958L34.221 38.4778C31.5257 38.482 28.8303 38.475 26.1364 38.4986C25.6992 38.5027 25.6521 38.3256 25.6577 37.9658C25.6756 36.8879 25.6853 35.8086 25.6535 34.732C25.6397 34.2906 25.7988 34.202 26.2042 34.2048C28.8774 34.2228 31.5506 34.2173 34.2251 34.22L34.2072 34.202Z" fill="black"/>
<path d="M111.165 38.4986C111.162 37.2269 111.171 35.9552 111.148 34.6836C111.143 34.3238 111.24 34.2034 111.615 34.2062C114.158 34.2214 116.701 34.2214 119.246 34.2062C119.618 34.2034 119.72 34.321 119.713 34.6822C119.691 35.9539 119.699 37.2255 119.697 38.4972L119.716 38.4792H111.148L111.166 38.4986H111.165Z" fill="black"/>
<path d="M76.9522 115.426C76.955 118.098 76.9508 120.77 76.9674 123.443C76.9702 123.84 76.8968 124.013 76.4458 123.999C75.3472 123.966 74.2472 123.974 73.1486 123.996C72.7819 124.003 72.674 123.891 72.6767 123.525C72.6906 120.981 72.692 118.438 72.6767 115.896C72.674 115.52 72.7985 115.426 73.1569 115.431C74.4284 115.452 75.7 115.444 76.9702 115.445L76.9522 115.427V115.426Z" fill="black"/>
<path d="M34.2022 38.4955C36.874 38.4927 39.5458 38.4969 42.219 38.4802C42.6161 38.4775 42.789 38.5508 42.7752 39.0019C42.742 40.1006 42.7503 41.2007 42.7724 42.2994C42.7794 42.6661 42.6673 42.774 42.3006 42.7712C39.7575 42.7574 37.2144 42.756 34.6726 42.7712C34.2963 42.774 34.2022 42.6495 34.2077 42.2911C34.2285 41.0194 34.2202 39.7478 34.2216 38.4775L34.2036 38.4955H34.2022Z" fill="black"/>
<path d="M119.696 115.428C119.699 118.124 119.696 120.819 119.713 123.515C119.716 123.871 119.63 124.005 119.249 123.996C118.129 123.973 117.006 123.973 115.886 123.996C115.504 124.005 115.422 123.868 115.424 123.514C115.439 120.818 115.436 118.122 115.439 115.427L115.421 115.446H119.714L119.695 115.428H119.696Z" fill="black"/>
<path d="M68.4113 40.5628C68.4113 40.0024 68.4266 39.4419 68.4058 38.8815C68.3933 38.5646 68.5165 38.4788 68.8181 38.483C69.9596 38.4968 71.1025 38.4982 72.2454 38.483C72.5705 38.4788 72.7006 38.5591 72.6951 38.912C72.6743 40.0536 72.6757 41.1965 72.6951 42.3381C72.7006 42.6868 72.5789 42.7754 72.2495 42.7698C71.1288 42.7532 70.0081 42.7519 68.8873 42.7698C68.5331 42.7754 68.385 42.6896 68.4058 42.3077C68.4362 41.7279 68.4141 41.1439 68.4141 40.5628H68.4113Z" fill="black"/>
<path d="M64.1269 34.2034C64.1296 35.4765 64.12 36.7509 64.1435 38.0239C64.1504 38.392 64.0383 38.5041 63.6703 38.4972C62.3973 38.4737 61.1244 38.4834 59.85 38.4806L59.8694 38.4986C59.8625 37.0678 59.857 35.637 59.85 34.2062C61.2807 34.2117 62.7128 34.2186 64.1435 34.2242L64.1255 34.2048L64.1269 34.2034Z" fill="black"/>
<path d="M2.12397 76.9619C2.68434 76.9619 3.2461 76.9895 3.80508 76.9522C4.22294 76.9245 4.30873 77.0864 4.30043 77.4683C4.27691 78.567 4.27967 79.6671 4.30043 80.7658C4.30735 81.1242 4.21049 81.2529 3.83414 81.2446C2.71339 81.221 1.59265 81.221 0.471902 81.2446C0.0900185 81.2529 0.00423302 81.1145 0.00976757 80.7616C0.0291385 79.6408 0.0277549 78.52 0.00976757 77.3991C0.00423302 77.0684 0.0927858 76.9383 0.442846 76.9536C1.00184 76.9799 1.56359 76.9605 2.12397 76.9605V76.9619Z" fill="black"/>
<path d="M17.1078 76.9508C17.1105 78.2239 17.1008 79.4983 17.123 80.7713C17.1299 81.1366 17.022 81.2529 16.6525 81.246C15.3796 81.2224 14.1067 81.2307 12.8337 81.2266L12.8517 81.2446C12.8489 79.9715 12.8572 78.6985 12.8337 77.4254C12.8268 77.0546 12.943 76.948 13.3083 76.955C14.5812 76.9771 15.8542 76.9674 17.1271 76.9688L17.1091 76.9508H17.1078Z" fill="black"/>
<path d="M12.8327 81.2262C12.8327 82.657 12.8299 84.0892 12.8285 85.52L12.8465 85.502C11.5763 85.5062 10.3048 85.4979 9.03457 85.52C8.67483 85.5269 8.54891 85.4287 8.55722 85.0537C8.57935 83.9342 8.58074 82.8134 8.55722 81.6939C8.54891 81.3148 8.68313 81.2249 9.03872 81.2304C10.3089 81.2511 11.5805 81.2415 12.8506 81.2442L12.8327 81.2262Z" fill="black"/>
<path d="M2.17517 85.5127C2.75768 85.5127 3.33881 85.5238 3.92132 85.5086C4.19943 85.5017 4.29906 85.5944 4.29629 85.878C4.28384 87.0639 4.28384 88.2484 4.29629 89.4343C4.29906 89.7304 4.17315 89.794 3.91025 89.7913C2.74662 89.7816 1.58298 89.7788 0.419337 89.7927C0.113553 89.7968 0.00701255 89.7013 0.0111635 89.39C0.0263835 88.2262 0.0263835 87.0625 0.0111635 85.8988C0.00701255 85.5722 0.138458 85.5003 0.430406 85.5086C1.01153 85.5252 1.59404 85.5141 2.17656 85.5141L2.17517 85.5127Z" fill="black"/>
<path d="M12.8296 85.5197C14.0998 85.5169 15.3699 85.5252 16.6401 85.5058C16.9902 85.5003 17.1327 85.5805 17.1244 85.9652C17.1009 87.0847 17.1022 88.2041 17.1244 89.3236C17.1313 89.6903 17.0206 89.8024 16.6526 89.7954C15.5332 89.7733 14.4138 89.7719 13.2945 89.7954C12.9112 89.8037 12.8296 89.6626 12.8351 89.3111C12.8545 88.0408 12.8462 86.7706 12.8489 85.5003L12.831 85.5183L12.8296 85.5197Z" fill="black"/>
<path d="M29.9302 85.5017C29.933 86.7733 29.9247 88.0436 29.9454 89.3153C29.951 89.6723 29.8597 89.8037 29.4805 89.7954C28.3612 89.7719 27.2404 89.7719 26.1197 89.7954C25.7419 89.8037 25.6492 89.6723 25.6548 89.3153C25.6755 88.045 25.6672 86.7733 25.67 85.5017L25.652 85.521H29.9454L29.9274 85.5017H29.9302Z" fill="black"/>
<path d="M59.8611 91.8638C59.8611 91.3034 59.8763 90.7429 59.8556 90.1825C59.8445 89.8684 59.9607 89.7785 60.2651 89.7812C61.4288 89.7951 62.5924 89.7978 63.756 89.7812C64.0909 89.7757 64.1421 89.9238 64.1393 90.2074C64.1282 91.349 64.1227 92.492 64.1421 93.635C64.1476 93.9809 64.0314 94.075 63.6993 94.0695C62.5786 94.0515 61.4578 94.0418 60.3371 94.0736C59.9054 94.0861 59.8376 93.9131 59.8542 93.5464C59.8791 92.9874 59.8611 92.4256 59.8611 91.8652V91.8638Z" fill="black"/>
<path d="M64.1475 102.605C62.8773 102.608 61.6072 102.6 60.337 102.619C59.9869 102.624 59.8444 102.544 59.8527 102.16C59.8762 101.04 59.8748 99.9206 59.8527 98.8012C59.8458 98.4345 59.9565 98.3224 60.3245 98.3293C61.4439 98.3515 62.5633 98.3528 63.6826 98.3293C64.0659 98.321 64.1475 98.4622 64.142 98.8136C64.1226 100.084 64.1309 101.354 64.1282 102.624L64.1461 102.606L64.1475 102.605Z" fill="black"/>
<path d="M76.967 102.623C76.9643 101.353 76.9726 100.083 76.9532 98.8123C76.9477 98.4622 77.0279 98.3196 77.4126 98.3279C78.5319 98.3515 79.6513 98.3501 80.7707 98.3279C81.1373 98.321 81.2494 98.4317 81.2425 98.7998C81.2203 99.9193 81.219 101.039 81.2425 102.158C81.2508 102.541 81.1097 102.623 80.7582 102.618C79.488 102.598 78.2178 102.606 76.9477 102.604L76.9657 102.622L76.967 102.623Z" fill="black"/>
<path d="M12.8489 59.873C12.8461 58.6013 12.8544 57.331 12.8337 56.0594C12.8281 55.7024 12.9194 55.5709 13.2986 55.5792C14.4179 55.6027 15.54 55.6027 16.6594 55.5792C17.0371 55.5709 17.1298 55.7024 17.1243 56.0594C17.1036 57.3296 17.1119 58.6013 17.1091 59.873L17.1271 59.8536H12.8337L12.8516 59.873H12.8489Z" fill="black"/>
<path d="M85.4995 8.55501C85.5023 9.82806 85.494 11.1011 85.5175 12.3742C85.5244 12.7436 85.411 12.8529 85.0443 12.846C83.7714 12.8239 82.4984 12.8322 81.2255 12.8294L81.2448 12.8474C81.2421 11.5743 81.2518 10.3013 81.2282 9.02825C81.2213 8.66018 81.3334 8.54948 81.7014 8.55501C82.9744 8.57854 84.2473 8.56885 85.5203 8.57162L85.5009 8.55363L85.4995 8.55501Z" fill="black"/>
<path d="M38.4998 111.155C37.2296 111.157 35.9594 111.149 34.6892 111.168C34.3392 111.174 34.1967 111.094 34.205 110.709C34.2285 109.59 34.2271 108.47 34.205 107.351C34.1981 106.984 34.3087 106.872 34.6768 106.879C35.7962 106.901 36.9155 106.902 38.0349 106.879C38.4182 106.871 38.4998 107.012 38.4943 107.363C38.4749 108.633 38.4832 109.904 38.4804 111.174L38.4984 111.156L38.4998 111.155Z" fill="black"/>
<path d="M85.4993 4.29755C86.7708 4.29478 88.041 4.30308 89.3126 4.28233C89.6695 4.27679 89.801 4.36812 89.7927 4.74727C89.7692 5.86672 89.7692 6.98755 89.7927 8.10838C89.801 8.48615 89.6695 8.57886 89.3126 8.57332C88.0424 8.55257 86.7708 8.56087 85.4993 8.5581L85.5186 8.57609V4.28233L85.4993 4.30032V4.29755Z" fill="black"/>
<path d="M111.147 51.3024C111.15 52.574 111.142 53.8443 111.163 55.116C111.168 55.473 111.077 55.6044 110.698 55.5961C109.578 55.5726 108.456 55.5726 107.337 55.5961C106.959 55.6044 106.866 55.473 106.872 55.116C106.893 53.8457 106.884 52.574 106.887 51.3024L106.869 51.3217H111.163L111.145 51.3024H111.147Z" fill="black"/>
<path d="M119.696 111.171C120.967 111.168 122.238 111.176 123.509 111.156C123.866 111.15 123.998 111.241 123.989 111.621C123.966 112.74 123.966 113.862 123.989 114.982C123.998 115.359 123.866 115.452 123.509 115.447C122.239 115.426 120.967 115.434 119.696 115.431L119.715 115.449V111.156L119.696 111.174V111.171Z" fill="black"/>
<path d="M8.55896 47.0269C8.56173 48.2972 8.55343 49.5675 8.5728 50.8378C8.57833 51.1879 8.49808 51.3304 8.11343 51.3221C6.99407 51.2986 5.87471 51.3 4.75534 51.3221C4.38868 51.329 4.2766 51.2183 4.28352 50.8502C4.30566 49.7308 4.30704 48.6113 4.28352 47.4919C4.27522 47.1086 4.41635 47.0269 4.7678 47.0325C6.03798 47.0519 7.30815 47.0435 8.57833 47.0463L8.56035 47.0283L8.55896 47.0269Z" fill="black"/>
<path d="M25.6728 47.048C25.6701 45.7764 25.6784 44.5061 25.6576 43.2344C25.6521 42.8774 25.7434 42.746 26.1225 42.7543C27.2419 42.7778 28.364 42.7778 29.4834 42.7543C29.8611 42.746 29.9538 42.8774 29.9483 43.2344C29.9275 44.5047 29.9358 45.7764 29.9331 47.048L29.951 47.0287H25.6576L25.6756 47.048H25.6728Z" fill="black"/>
<path d="M119.696 38.4968C120.967 38.4941 122.238 38.5024 123.509 38.4816C123.866 38.4761 123.998 38.5674 123.989 38.9465C123.966 40.066 123.966 41.1868 123.989 42.3077C123.998 42.6854 123.866 42.7781 123.509 42.7726C122.239 42.7518 120.967 42.7601 119.696 42.7574L119.715 42.7754V38.4816L119.696 38.4996V38.4968Z" fill="black"/>
<path d="M106.89 76.9733C106.887 75.703 106.895 74.4327 106.876 73.1625C106.871 72.8124 106.951 72.6698 107.335 72.6782C108.455 72.7017 109.574 72.7003 110.694 72.6782C111.06 72.6712 111.172 72.7819 111.165 73.15C111.143 74.2695 111.142 75.3889 111.165 76.5084C111.174 76.8917 111.033 76.9733 110.681 76.9678C109.411 76.9484 108.141 76.9567 106.871 76.9539L106.889 76.9719L106.89 76.9733Z" fill="black"/>
<path d="M98.3333 96.2042C98.3333 96.7647 98.3208 97.3251 98.3388 97.8855C98.3485 98.1982 98.2862 98.3518 97.921 98.3449C96.7573 98.3241 95.5937 98.3311 94.4301 98.3421C94.1547 98.3449 94.0509 98.2591 94.0537 97.9741C94.0662 96.7882 94.0662 95.6037 94.0537 94.4178C94.0509 94.1231 94.1741 94.0567 94.4384 94.0594C95.602 94.0691 96.7656 94.0719 97.9293 94.0581C98.2337 94.0539 98.3485 94.1452 98.3388 94.4593C98.3195 95.0405 98.3333 95.6231 98.3333 96.2056V96.2042Z" fill="black"/>
<path d="M29.9303 76.9722C29.9331 75.6992 29.9234 74.4262 29.9469 73.1531C29.9538 72.785 29.8418 72.6743 29.4737 72.6799C28.2008 72.7034 26.9278 72.6937 25.6549 72.6965C25.6576 71.4248 25.6729 70.1532 25.6563 68.8829C25.6521 68.5245 25.7462 68.4027 26.1225 68.4041C28.6643 68.4193 31.2074 68.4193 33.7492 68.4041C34.1158 68.4013 34.2237 68.5093 34.221 68.876C34.2071 71.4179 34.2058 73.9612 34.221 76.5032C34.2237 76.8782 34.1006 76.9736 33.7422 76.9695C32.4707 76.9529 31.2005 76.9681 29.9289 76.9709L29.9303 76.9722Z" fill="black"/>
<path d="M68.42 68.4027V72.6965H64.1265C64.1293 71.4234 64.1459 70.1504 64.1265 68.8773C64.121 68.5093 64.2317 68.4 64.5997 68.4041C65.8727 68.4221 67.1456 68.4055 68.4186 68.4041L68.42 68.4027Z" fill="black"/>
<path d="M59.8712 29.9294V34.2231H55.5778V29.9294H59.8712Z" fill="black"/>
<path d="M64.1449 29.9477H59.8515C59.8542 28.6747 59.8708 27.4016 59.8515 26.1286C59.8459 25.7605 59.9566 25.6512 60.3247 25.6553C61.5976 25.6733 62.8706 25.6567 64.1435 25.6553V29.9491L64.1449 29.9477Z" fill="black"/>
<path d="M21.3991 8.5716H8.55586V21.4159H21.3991V8.5716Z" fill="black"/>
<path d="M21.3991 8.5716H8.55586V21.4159H21.3991V8.5716Z" fill="black"/>
<path d="M21.3991 8.5716H8.55586V21.4159H21.3991V8.5716Z" fill="black"/>
<path d="M0.00872798 0V29.9335H29.9385V0H0.00872798ZM25.6745 25.6913H4.28106V4.29618H25.6745V25.6913Z" fill="black"/>
<path d="M21.3991 102.631H8.55586V115.475H21.3991V102.631Z" fill="black"/>
<path d="M21.3991 102.631H8.55586V115.475H21.3991V102.631Z" fill="black"/>
<path d="M21.3991 102.631H8.55586V115.475H21.3991V102.631Z" fill="black"/>
<path d="M0.0084228 94.0594V123.993H29.9382V94.0594H0.0084228ZM25.6742 119.751H4.28075V98.3556H25.6742V119.751Z" fill="black"/>
<path d="M115.444 8.5716H102.601V21.4159H115.444V8.5716Z" fill="black"/>
<path d="M115.444 8.5716H102.601V21.4159H115.444V8.5716Z" fill="black"/>
<path d="M115.444 8.5716H102.601V21.4159H115.444V8.5716Z" fill="black"/>
<path d="M94.0536 0V29.9335H123.983V0H94.0536ZM119.719 25.6913H98.326V4.29618H119.719V25.6913Z" fill="black"/>
</svg>
