<svg width="9" height="9" viewBox="0 0 9 9" fill="none" xmlns="http://www.w3.org/2000/svg">
<path d="M1.66948 7.99887C1.49633 8.00898 1.32604 7.95113 1.19453 7.83751C0.935155 7.57527 0.935155 7.15175 1.19453 6.88952L6.87397 1.18142C7.14374 0.927715 7.56706 0.941819 7.81949 1.21295C8.04776 1.45813 8.06107 1.83499 7.85064 2.0958L2.13774 7.83751C2.00792 7.94949 1.84036 8.00723 1.66948 7.99887Z" fill="white"/>
<path d="M7.28278 7.99638C7.10802 7.99563 6.94051 7.92578 6.81642 7.80186L1.16019 2.10707C0.920881 1.8257 0.953417 1.40226 1.23288 1.16129C1.48231 0.946236 1.85016 0.946236 2.09957 1.16129L7.7891 6.85607C8.0577 7.10925 8.07159 7.53373 7.82012 7.80416C7.81012 7.81492 7.79978 7.82532 7.7891 7.8354C7.64978 7.95737 7.46644 8.01566 7.28278 7.99638Z" fill="white"/>
</svg>
