<svg width="23" height="23" viewBox="0 0 23 23" fill="none" xmlns="http://www.w3.org/2000/svg">
<path d="M16.5205 16.6062H6.47325C6.13819 16.6062 5.86279 16.8801 5.86279 17.2167C5.86279 17.5533 6.13819 17.8271 6.47325 17.8271H16.5267C16.8617 17.8271 17.1371 17.5518 17.1371 17.2167C17.1371 16.8816 16.8617 16.6062 16.5205 16.6062Z" fill="#A8BD38"/>
<path d="M11.0509 14.4138C11.1672 14.5362 11.3263 14.6096 11.4961 14.6096C11.666 14.6096 11.8251 14.5362 11.9414 14.4138L15.5184 10.5736C15.751 10.3288 15.7326 9.93865 15.4878 9.71221C15.243 9.47966 14.8529 9.49802 14.6265 9.74281L12.1051 12.4463V5.7802C12.1051 5.4436 11.8297 5.16974 11.4946 5.16974C11.1596 5.16974 10.8842 5.4436 10.8842 5.7802V12.4463L8.36889 9.74281C8.13634 9.49802 7.75232 9.47966 7.50752 9.71221C7.26273 9.94477 7.24437 10.3288 7.47692 10.5736L11.0479 14.4138H11.0509Z" fill="#A8BD38"/>
<path d="M18.9379 23H4.06206C1.82219 23 0 21.1778 0 18.9379V4.06206C0 1.82219 1.82219 0 4.06206 0H18.9379C21.1778 0 23 1.82219 23 4.06206V18.9379C23 21.1778 21.1778 23 18.9379 23ZM4.06206 1.07098C2.41276 1.07098 1.07098 2.41276 1.07098 4.06206V18.9379C1.07098 20.5872 2.41276 21.929 4.06206 21.929H18.9379C20.5872 21.929 21.929 20.5872 21.929 18.9379V4.06206C21.929 2.41276 20.5872 1.07098 18.9379 1.07098H4.06206Z" fill="#A8BD38"/>
</svg>
