<svg width="23" height="23" viewBox="0 0 23 23" fill="none" xmlns="http://www.w3.org/2000/svg">
<path d="M16.5205 16.6062H6.47325C6.13819 16.6062 5.86279 16.8801 5.86279 17.2167C5.86279 17.5533 6.13819 17.8271 6.47325 17.8271H16.5267C16.8617 17.8271 17.1371 17.5518 17.1371 17.2167C17.1371 16.8816 16.8617 16.6062 16.5205 16.6062Z" fill="#A8BD38"/>
<path d="M11.9444 5.36556C11.8282 5.24316 11.669 5.16972 11.4992 5.16972C11.3294 5.16972 11.1703 5.24316 11.054 5.36556L7.47693 9.20577C7.24438 9.45057 7.26274 9.84071 7.50753 10.0671C7.75233 10.2997 8.14247 10.2813 8.3689 10.0365L10.8903 7.33309L10.8903 13.9992C10.8903 14.3358 11.1657 14.6096 11.5007 14.6096C11.8358 14.6096 12.1112 14.3358 12.1112 13.9992L12.1112 7.33309L14.6265 10.0365C14.859 10.2813 15.243 10.2997 15.4878 10.0671C15.7326 9.83459 15.751 9.45057 15.5184 9.20577L11.9475 5.36556L11.9444 5.36556Z" fill="#A8BD38"/>
<path d="M18.9379 23H4.06206C1.82219 23 0 21.1778 0 18.9379V4.06206C0 1.82219 1.82219 0 4.06206 0H18.9379C21.1778 0 23 1.82219 23 4.06206V18.9379C23 21.1778 21.1778 23 18.9379 23ZM4.06206 1.07098C2.41276 1.07098 1.07098 2.41276 1.07098 4.06206V18.9379C1.07098 20.5872 2.41276 21.929 4.06206 21.929H18.9379C20.5872 21.929 21.929 20.5872 21.929 18.9379V4.06206C21.929 2.41276 20.5872 1.07098 18.9379 1.07098H4.06206Z" fill="#A8BD38"/>
</svg>
