<svg width="68" height="68" viewBox="0 0 68 68" fill="none" xmlns="http://www.w3.org/2000/svg">
<g clip-path="url(#clip0_165_81)">
<path d="M63.7071 22.2913H62.1171L61.3431 22.287V16.7862H50.477V22.287H49.7029L48.1129 22.2913C47.6485 22.2913 47.2761 22.6781 47.2761 23.1509C47.2761 23.6236 47.6527 24.0104 48.1129 24.0104H49.7029V25.1922C49.7029 28.7076 52.4895 31.5654 55.9079 31.5654C59.3263 31.5654 62.1129 28.7076 62.1129 25.1922V24.0104H63.7029C64.1673 24.0104 64.5397 23.6236 64.5397 23.1509C64.5397 22.6781 64.1632 22.2913 63.7029 22.2913H63.7071ZM52.1548 18.5095H59.6652V22.287H52.1548V18.5095ZM60.4393 25.1922C60.4393 27.7578 58.41 29.8464 55.9079 29.8464C53.4058 29.8464 51.3849 27.7621 51.3849 25.1922V24.019H60.4393V25.1922Z" fill="#176D30"/>
<path d="M55.9916 60.0925C55.5272 60.0925 55.1506 60.4793 55.1506 60.9563V67.1405C55.1506 67.6175 55.5272 68.0043 55.9916 68.0043C56.4561 68.0043 56.8326 67.6175 56.8326 67.1405V60.9563C56.8326 60.4793 56.4561 60.0925 55.9916 60.0925Z" fill="#176D30"/>
<path d="M64.0335 33.5165H47.8118C47.6863 33.5165 47.5565 33.5208 47.431 33.5337C47.6528 34.0623 47.8034 34.6382 47.8536 35.2398H50.8745V40.2637L50.862 41.785V43.2075H48.908V56.5986H47.6235C47.3557 56.5986 47.1047 56.5513 46.8662 56.4525C46.5147 56.9467 46.0879 57.3765 45.5984 57.7203C46.1842 58.1071 46.8787 58.3262 47.6193 58.3262H48.9038V67.1362C48.9038 67.6132 49.2804 67.9957 49.7406 67.9957C50.2009 67.9957 50.5775 67.6089 50.5775 67.1362V58.3262H61.3976V67.1362C61.3976 67.6132 61.7741 67.9957 62.2344 67.9957C62.6946 67.9957 63.0712 67.6089 63.0712 67.1362V58.3262H64.2009C66.2846 58.3262 67.9833 56.5814 67.9833 54.4413V37.5906C67.9833 35.343 66.2009 33.5165 64.0168 33.5165H64.0335ZM52.5565 35.2398H59.0126V39.7523H52.5565V35.2398ZM61.4101 56.5986H50.59V44.9351H52.544V41.987H59.021V44.9351H61.4101V56.5986ZM66.3222 54.4413C66.3222 55.6317 65.3724 56.5986 64.2176 56.5986H63.0879V43.2075H60.6988V41.785L60.6904 40.2637V35.2398H64.0377C65.2971 35.2398 66.3264 36.2927 66.3264 37.5906V54.4413H66.3222Z" fill="#176D30"/>
<path d="M19.8619 22.2913H18.2719L17.4979 22.287V16.7862H6.63175V22.287H5.85769L4.26773 22.2913C3.80329 22.2913 3.43091 22.6781 3.43091 23.1509C3.43091 23.6236 3.80748 24.0104 4.26773 24.0104H5.85769V25.1922C5.85769 28.7076 8.64011 31.5654 12.0627 31.5654C15.4853 31.5654 18.2677 28.7076 18.2677 25.1922V24.0104H19.8577C20.3221 24.0104 20.6945 23.6236 20.6945 23.1509C20.6945 22.6781 20.3179 22.2913 19.8577 22.2913H19.8619ZM8.30957 18.5095H15.82V22.287H8.30957V18.5095ZM16.5941 25.1922C16.5941 27.7578 14.5606 29.8464 12.0627 29.8464C9.5648 29.8464 7.53133 27.7621 7.53133 25.1922V24.019H16.5899V25.1922H16.5941Z" fill="#176D30"/>
<path d="M12.1423 60.0925C11.6778 60.0925 11.3013 60.4793 11.3013 60.9563V67.1405C11.3013 67.6175 11.6778 68.0043 12.1423 68.0043C12.6067 68.0043 12.9833 67.6175 12.9833 67.1405V60.9563C12.9833 60.4793 12.6067 60.0925 12.1423 60.0925Z" fill="#176D30"/>
<path d="M21.1213 56.4525C20.887 56.5513 20.6318 56.5986 20.364 56.5986H19.2385V43.2075H16.8494V41.785L16.841 40.2637V35.2398H20.1381C20.1925 34.6382 20.3389 34.0666 20.5607 33.5337C20.4351 33.5208 20.3054 33.5165 20.1799 33.5165H3.96653C1.77824 33.5165 0 35.343 0 37.5906V54.4413C0 56.5814 1.69456 58.3262 3.78243 58.3262H5.06276V67.1362C5.06276 67.6132 5.43933 67.9957 5.89958 67.9957C6.35983 67.9957 6.74059 67.6089 6.74059 67.1362V58.3262H17.5607V67.1362C17.5607 67.6132 17.9372 67.9957 18.3975 67.9957C18.8577 67.9957 19.2343 67.6089 19.2343 67.1362V58.3262H20.3598C21.1004 58.3262 21.795 58.1071 22.3808 57.7203C21.8912 57.3765 21.4644 56.9424 21.113 56.4525H21.1213ZM8.70711 35.2441H15.1632V39.7566H8.70711V35.2441ZM5.05858 43.2118V56.6029H3.77824C2.61506 56.6029 1.67364 55.636 1.67364 54.4456V37.5949C1.67364 36.297 2.69875 35.2441 3.96234 35.2441H7.02929V40.268L7.01674 41.7893V43.2118H5.05858ZM17.5607 56.6029H6.74059V44.9394H8.69456V41.9913H15.1715V44.9394H17.5607V56.6029Z" fill="#176D30"/>
<path d="M25.8703 21.6166H27.5272V22.8457C27.5272 26.5029 30.4268 29.4811 33.9874 29.4811C37.5481 29.4811 40.4477 26.5029 40.4477 22.8457V21.6166H42.1046C42.5858 21.6166 42.9791 21.217 42.9791 20.7185C42.9791 20.2199 42.59 19.8203 42.1046 19.8203H40.4477H39.6444V14.0916H28.3347V19.8203H27.5314H25.8745C25.3933 19.8203 25 20.2199 25 20.7185C25 21.217 25.3891 21.6166 25.8745 21.6166H25.8703ZM33.9874 27.6848C31.3891 27.6848 29.2762 25.5145 29.2762 22.8457V21.6209H38.7029V22.8457C38.7029 25.5145 36.59 27.6848 33.9916 27.6848H33.9874ZM30.0795 15.8837H37.8954V19.816H30.0795V15.8837Z" fill="#A8BD38"/>
<path d="M34.071 59.1685C33.5898 59.1685 33.1965 59.5682 33.1965 60.0667V67.1018C33.1965 67.596 33.5857 68 34.071 68C34.5564 68 34.9455 67.6003 34.9455 67.1018V60.0667C34.9455 59.5725 34.5564 59.1685 34.071 59.1685Z" fill="#A8BD38"/>
<path d="M42.4393 31.5096H25.5565C23.2803 31.5096 21.4268 33.4134 21.4268 35.7513V53.2895C21.4268 55.5199 23.1924 57.3335 25.364 57.3335H26.6987V67.1061C26.6987 67.6003 27.0878 68.0043 27.5732 68.0043C28.0586 68.0043 28.4477 67.6046 28.4477 67.1061V57.3335H39.7071V67.1061C39.7071 67.6003 40.0962 68.0043 40.5816 68.0043C41.0669 68.0043 41.456 67.6046 41.456 67.1061V57.3335H42.6318C44.8033 57.3335 46.569 55.5199 46.569 53.2895V35.7513C46.569 33.4134 44.7155 31.5096 42.4393 31.5096ZM37.2134 33.306V38.0032H30.4979V33.306H37.2134ZM25.364 55.5371C24.1548 55.5371 23.1757 54.5272 23.1757 53.2895V35.7513C23.1757 34.4018 24.2427 33.306 25.5565 33.306H28.7489V38.5361L28.7364 40.1219V41.6002H26.7029V55.5371H25.3682H25.364ZM28.4477 55.5371V43.3923H30.4811V40.3281H37.2217V43.3923H39.7071V55.5371H28.4477ZM44.8201 53.2895C44.8201 54.5315 43.8368 55.5371 42.6276 55.5371H41.4519V41.6002H38.9665V40.1219L38.9581 38.5361V33.306H42.4351C43.7489 33.306 44.8159 34.4018 44.8159 35.7513V53.2895H44.8201Z" fill="#A8BD38"/>
<path d="M39.7531 7.22847H41.3431V8.40599C41.3431 11.9214 44.1255 14.7792 47.5481 14.7792C50.9707 14.7792 53.7531 11.9214 53.7531 8.40599V7.22847H55.3431C55.8075 7.22847 56.1841 6.84169 56.1841 6.36466C56.1841 5.88763 55.8075 5.50085 55.3431 5.50085H53.7531H52.9791V0H42.113V5.50085H41.3389H39.749C39.2845 5.50085 38.908 5.88763 38.908 6.36466C38.908 6.84169 39.2845 7.22847 39.749 7.22847H39.7531ZM47.5523 13.0602C45.0544 13.0602 43.0251 10.9759 43.0251 8.41029V7.23276H52.0795V8.41029C52.0795 10.9759 50.0502 13.0602 47.5523 13.0602ZM43.795 1.72331H51.3055V5.50085H43.795V1.72331Z" fill="#A8BD38"/>
<path d="M13.5984 7.22847H15.1883V8.40599C15.1883 11.9214 17.9707 14.7792 21.3933 14.7792C24.8159 14.7792 27.5984 11.9214 27.5984 8.40599V7.22847H29.1883C29.6528 7.22847 30.0293 6.84169 30.0293 6.36466C30.0293 5.88763 29.6528 5.50085 29.1883 5.50085H27.5984H26.8243V0H15.9582V5.50085H15.1841H13.5942C13.1297 5.50085 12.7532 5.88763 12.7532 6.36466C12.7532 6.84169 13.1297 7.22847 13.5942 7.22847H13.5984ZM21.3975 13.0602C18.8996 13.0602 16.8703 10.9759 16.8703 8.41029V7.23276H25.9247V8.41029C25.9247 10.9759 23.8954 13.0602 21.3975 13.0602ZM17.6402 1.72331H25.1507V5.50085H17.6402V1.72331Z" fill="#A8BD38"/>
</g>
<defs>
<clipPath id="clip0_165_81">
<rect width="68" height="68" fill="white"/>
</clipPath>
</defs>
</svg>
