<svg width="40" height="40" viewBox="0 0 40 40" fill="none" xmlns="http://www.w3.org/2000/svg">
<path d="M9.34351 9.56708L19.6717 5.14068C19.8814 5.05084 20.1187 5.05084 20.3284 5.14068L30.6565 9.56708C31.2694 9.82971 31.6667 10.4323 31.6667 11.099V22.5302C31.6667 26.1187 29.7439 29.4322 26.628 31.2125L20.4135 34.7637C20.1574 34.9102 19.8427 34.9102 19.5865 34.7637L13.372 31.2125C10.2562 29.4322 8.33337 26.1187 8.33337 22.5302V11.099C8.33337 10.4323 8.73071 9.82971 9.34351 9.56708Z" fill="#1CB0F6"/>
<path fill-rule="evenodd" clip-rule="evenodd" d="M19.3435 3.46808C19.7626 3.28841 20.2373 3.28841 20.6565 3.46808L31.313 8.03518C32.5386 8.56043 33.3333 9.76556 33.3333 11.099V22.5302C33.3333 26.7168 31.09 30.5825 27.455 32.6597L20.8268 36.447C20.3145 36.7398 19.6855 36.7398 19.1731 36.447L12.545 32.6597C8.90996 30.5825 6.66663 26.7168 6.66663 22.5302V11.099C6.66663 9.76556 7.46128 8.56043 8.68689 8.03518L19.3435 3.46808ZM20.3283 6.95396C20.1186 6.86413 19.8813 6.86413 19.6716 6.95396L10.505 10.8825C10.1986 11.0138 9.99996 11.3151 9.99996 11.6485V22.5302C9.99996 25.5205 11.6023 28.2818 14.1988 29.7655L19.5865 32.8442C19.8426 32.9905 20.1573 32.9905 20.4135 32.8442L25.8011 29.7655C28.3976 28.2818 30 25.5205 30 22.5302V11.6485C30 11.3151 29.8013 11.0138 29.495 10.8825L20.3283 6.95396Z" fill="#1CB0F6"/>
<path fill-rule="evenodd" clip-rule="evenodd" d="M26.1784 15.4882C26.8293 16.139 26.8293 17.1943 26.1784 17.8452L19.5118 24.5118C18.8609 25.1627 17.8056 25.1627 17.1548 24.5118L13.8214 21.1785C13.1705 20.5277 13.1705 19.4723 13.8214 18.8215C14.4723 18.1707 15.5276 18.1707 16.1784 18.8215L17.7439 20.387C18.0694 20.7125 18.5971 20.7125 18.9226 20.387L23.8214 15.4882C24.4723 14.8373 25.5276 14.8373 26.1784 15.4882Z" fill="#DDF4FF"/>
</svg>
