<svg width="14" height="14" viewBox="0 0 14 14" fill="none" xmlns="http://www.w3.org/2000/svg">
<path d="M11.375 0.4375H2.625C2.27702 0.437894 1.94341 0.576301 1.69736 0.822357C1.4513 1.06841 1.31289 1.40202 1.3125 1.75V13.125C1.31242 13.1943 1.32885 13.2626 1.36043 13.3243C1.392 13.3859 1.43781 13.4392 1.49406 13.4796C1.55061 13.5196 1.61566 13.5459 1.6841 13.5564C1.75254 13.5669 1.82249 13.5614 1.88843 13.5403L4.375 12.7114L6.86158 13.5403C6.95157 13.5693 7.04843 13.5693 7.13843 13.5403L9.625 12.7114L12.1116 13.5403C12.1563 13.5548 12.203 13.5623 12.25 13.5625C12.366 13.5625 12.4773 13.5164 12.5594 13.4344C12.6414 13.3523 12.6875 13.241 12.6875 13.125V1.75C12.6871 1.40202 12.5487 1.06841 12.3026 0.822357C12.0566 0.576301 11.723 0.437894 11.375 0.4375ZM11.8125 12.5183L9.76342 11.8347C9.67343 11.8057 9.57657 11.8057 9.48658 11.8347L7 12.6636L4.51343 11.8347C4.42352 11.8051 4.32648 11.8051 4.23658 11.8347L2.1875 12.5183V1.75C2.18764 1.63401 2.23378 1.52281 2.31579 1.44079C2.39781 1.35878 2.50901 1.31264 2.625 1.3125H11.375C11.491 1.31264 11.6022 1.35878 11.6842 1.44079C11.7662 1.52281 11.8124 1.63401 11.8125 1.75V12.5183Z" fill="white"/>
<path d="M4.375 4.8125H6.125C6.24103 4.8125 6.35231 4.76641 6.43436 4.68436C6.51641 4.60231 6.5625 4.49103 6.5625 4.375C6.5625 4.25897 6.51641 4.14769 6.43436 4.06564C6.35231 3.98359 6.24103 3.9375 6.125 3.9375H4.375C4.25897 3.9375 4.14769 3.98359 4.06564 4.06564C3.98359 4.14769 3.9375 4.25897 3.9375 4.375C3.9375 4.49103 3.98359 4.60231 4.06564 4.68436C4.14769 4.76641 4.25897 4.8125 4.375 4.8125Z" fill="white"/>
<path d="M9.625 6.125H4.375C4.25897 6.125 4.14769 6.17109 4.06564 6.25314C3.98359 6.33519 3.9375 6.44647 3.9375 6.5625C3.9375 6.67853 3.98359 6.78981 4.06564 6.87186C4.14769 6.95391 4.25897 7 4.375 7H9.625C9.74103 7 9.85231 6.95391 9.93436 6.87186C10.0164 6.78981 10.0625 6.67853 10.0625 6.5625C10.0625 6.44647 10.0164 6.33519 9.93436 6.25314C9.85231 6.17109 9.74103 6.125 9.625 6.125Z" fill="white"/>
<path d="M9.625 8.3125H4.375C4.25897 8.3125 4.14769 8.35859 4.06564 8.44064C3.98359 8.52269 3.9375 8.63397 3.9375 8.75C3.9375 8.86603 3.98359 8.97731 4.06564 9.05936C4.14769 9.14141 4.25897 9.1875 4.375 9.1875H9.625C9.74103 9.1875 9.85231 9.14141 9.93436 9.05936C10.0164 8.97731 10.0625 8.86603 10.0625 8.75C10.0625 8.63397 10.0164 8.52269 9.93436 8.44064C9.85231 8.35859 9.74103 8.3125 9.625 8.3125Z" fill="white"/>
</svg>
