<svg width="27" height="27" viewBox="0 0 27 27" fill="none" xmlns="http://www.w3.org/2000/svg">
<path d="M3.49411 1.58823H5.87646V3.97058C5.87646 4.44705 6.27352 4.7647 6.67058 4.7647C7.06764 4.7647 7.46469 4.44705 7.46469 3.97058V1.58823H20.1706V3.97058C20.1706 4.44705 20.5676 4.7647 20.9647 4.7647C21.3618 4.7647 21.7588 4.44705 21.7588 3.97058V1.58823H24.1412C25.3323 1.58823 26.2059 2.62058 26.2059 3.97058V6.8294H0.794107V3.97058C0.794107 2.62058 2.22352 1.58823 3.49411 1.58823ZM26.2059 8.49705V23.0294C26.2059 24.4588 25.3323 25.4118 24.0618 25.4118H3.4147C2.14411 25.4118 0.714697 24.3794 0.714697 23.0294V8.49705H26.2059ZM19.1382 21.8382H21.0441C21.3618 21.8382 21.6794 21.6 21.6794 21.2029V19.2176C21.6794 18.9 21.4412 18.5823 21.0441 18.5823H19.0588C18.7412 18.5823 18.4235 18.8206 18.4235 19.2176V21.2029C18.5029 21.6 18.7412 21.8382 19.1382 21.8382ZM19.1382 14.6912H21.0441C21.3618 14.6912 21.6794 14.4529 21.6794 14.0559V12.0706C21.6794 11.7529 21.4412 11.4353 21.0441 11.4353H19.0588C18.7412 11.4353 18.4235 11.6735 18.4235 12.0706V14.0559C18.5029 14.4529 18.7412 14.6912 19.1382 14.6912ZM12.7853 21.8382H14.7706C15.0882 21.8382 15.4059 21.6 15.4059 21.2029V19.2176C15.4059 18.9 15.1676 18.5823 14.7706 18.5823H12.7853C12.4676 18.5823 12.15 18.8206 12.15 19.2176V21.2029C12.15 21.6 12.3882 21.8382 12.7853 21.8382ZM12.7853 14.6912H14.7706C15.0882 14.6912 15.4059 14.4529 15.4059 14.0559V12.0706C15.4059 11.7529 15.1676 11.4353 14.7706 11.4353H12.7853C12.4676 11.4353 12.15 11.6735 12.15 12.0706V14.0559C12.15 14.4529 12.3882 14.6912 12.7853 14.6912ZM6.43234 21.8382H8.41764C8.73528 21.8382 9.05293 21.6 9.05293 21.2029V19.2176C9.05293 18.9 8.8147 18.5823 8.41764 18.5823H6.43234C6.1147 18.5823 5.79705 18.8206 5.79705 19.2176V21.2029C5.79705 21.6 6.03528 21.8382 6.43234 21.8382ZM6.43234 14.6912H8.41764C8.73528 14.6912 9.05293 14.4529 9.05293 14.0559V12.0706C9.05293 11.7529 8.8147 11.4353 8.41764 11.4353H6.43234C6.1147 11.4353 5.79705 11.6735 5.79705 12.0706V14.0559C5.79705 14.4529 6.03528 14.6912 6.43234 14.6912Z" fill="black"/>
</svg>
