<svg width="239" height="48" viewBox="0 0 239 48" fill="none" xmlns="http://www.w3.org/2000/svg">
<g clip-path="url(#clip0_203_230)">
<path d="M163.845 11.1871V0.676285H168.434C169.572 0.676285 170.574 0.896163 171.432 1.33592C172.291 1.77567 172.963 2.38534 173.442 3.16823C173.921 3.9478 174.161 4.87062 174.161 5.93003C174.161 6.98944 173.921 7.89894 173.442 8.68517C172.963 9.4714 172.294 10.0844 171.432 10.5241C170.574 10.9639 169.572 11.1838 168.434 11.1838H163.845V11.1871ZM165.795 9.5347H168.344C169.133 9.5347 169.815 9.38478 170.391 9.08495C170.966 8.78511 171.409 8.36535 171.725 7.82231C172.041 7.28261 172.197 6.64963 172.197 5.93003C172.197 5.21043 172.041 4.56746 171.725 4.03109C171.409 3.49472 170.966 3.07828 170.391 2.77845C169.815 2.47862 169.133 2.3287 168.344 2.3287H165.795V9.5347Z" fill="#037248"/>
<path d="M178.463 11.2904C177.864 11.2904 177.338 11.1871 176.889 10.9839C176.44 10.7807 176.091 10.4942 175.848 10.1277C175.605 9.76123 175.482 9.34813 175.482 8.88838C175.482 8.42864 175.588 8.03219 175.804 7.67239C176.021 7.31259 176.37 7.02608 176.863 6.8162C177.352 6.60632 178.001 6.49971 178.813 6.49971H181.138V7.74568H178.949C178.31 7.74568 177.877 7.84896 177.658 8.05218C177.438 8.25873 177.328 8.50859 177.328 8.81176C177.328 9.15157 177.465 9.42142 177.734 9.62131C178.004 9.8212 178.38 9.92114 178.859 9.92114C179.338 9.92114 179.731 9.81454 180.097 9.60465C180.463 9.39477 180.722 9.08494 180.886 8.67517L181.202 9.80121C181.022 10.2709 180.699 10.6374 180.233 10.8973C179.768 11.1571 179.182 11.2871 178.473 11.2871L178.463 11.2904ZM180.982 11.1838V9.56134L180.876 9.21487V6.37645C180.876 5.82675 180.709 5.39699 180.38 5.09382C180.05 4.78733 179.551 4.63741 178.879 4.63741C178.43 4.63741 177.987 4.70737 177.551 4.84729C177.115 4.98722 176.749 5.18377 176.45 5.43364L175.715 4.06773C176.144 3.73791 176.656 3.49138 177.252 3.32481C177.848 3.15823 178.463 3.07828 179.105 3.07828C180.263 3.07828 181.162 3.35479 181.797 3.91115C182.433 4.46751 182.749 5.3237 182.749 6.48638V11.1871H180.979L180.982 11.1838Z" fill="#037248"/>
<path d="M184.086 4.7307V3.2282H189.424V4.7307H184.086ZM188.166 11.2904C187.287 11.2904 186.605 11.0638 186.126 10.6074C185.647 10.151 185.407 9.47806 185.407 8.58856V1.39922H187.281V8.54525C187.281 8.92503 187.377 9.22154 187.574 9.43142C187.77 9.6413 188.039 9.74791 188.392 9.74791C188.811 9.74791 189.161 9.63797 189.44 9.41809L189.966 10.754C189.746 10.9339 189.477 11.0705 189.158 11.1605C188.838 11.2504 188.509 11.297 188.166 11.297V11.2904Z" fill="#037248"/>
<path d="M193.926 11.2904C193.327 11.2904 192.801 11.1871 192.352 10.9839C191.903 10.7807 191.554 10.4942 191.311 10.1277C191.068 9.76123 190.945 9.34813 190.945 8.88838C190.945 8.42864 191.051 8.03219 191.267 7.67239C191.48 7.31259 191.833 7.02608 192.325 6.8162C192.815 6.60632 193.463 6.49971 194.275 6.49971H196.601V7.74568H194.412C193.773 7.74568 193.34 7.84896 193.121 8.05218C192.901 8.25873 192.791 8.50859 192.791 8.81176C192.791 9.15157 192.928 9.42142 193.197 9.62131C193.467 9.8212 193.843 9.92114 194.322 9.92114C194.801 9.92114 195.194 9.81454 195.56 9.60465C195.926 9.39477 196.189 9.08494 196.348 8.67517L196.665 9.80121C196.485 10.2709 196.162 10.6374 195.696 10.8973C195.23 11.1571 194.645 11.2871 193.936 11.2871L193.926 11.2904ZM196.445 11.1838V9.56134L196.342 9.21487V6.37645C196.342 5.82675 196.175 5.39699 195.846 5.09382C195.517 4.78733 195.017 4.63741 194.345 4.63741C193.896 4.63741 193.453 4.70737 193.018 4.84729C192.582 4.98722 192.216 5.18377 191.916 5.43364L191.181 4.06773C191.61 3.73791 192.122 3.49138 192.718 3.32481C193.314 3.15823 193.929 3.07828 194.568 3.07828C195.726 3.07828 196.625 3.35479 197.26 3.91115C197.896 4.46751 198.212 5.3237 198.212 6.48638V11.1871H196.442L196.445 11.1838Z" fill="#037248"/>
<path d="M168.703 29.3537C167.905 29.3537 167.163 29.2204 166.477 28.9572C165.792 28.6907 165.196 28.3176 164.694 27.8312C164.188 27.3448 163.795 26.7718 163.516 26.1122C163.236 25.4525 163.097 24.7296 163.097 23.95C163.097 23.1705 163.236 22.4475 163.516 21.7879C163.795 21.1283 164.191 20.5552 164.701 20.0688C165.21 19.5824 165.805 19.2093 166.484 18.9428C167.163 18.6763 167.908 18.5464 168.717 18.5464C169.575 18.5464 170.361 18.6929 171.069 18.9894C171.778 19.2859 172.38 19.7224 172.87 20.302L171.608 21.4881C171.229 21.0783 170.803 20.7718 170.334 20.5652C169.865 20.362 169.356 20.2587 168.803 20.2587C168.251 20.2587 167.752 20.3487 167.296 20.5286C166.84 20.7085 166.447 20.965 166.111 21.2948C165.775 21.6246 165.516 22.0144 165.333 22.4675C165.146 22.9173 165.057 23.4137 165.057 23.9534C165.057 24.4931 165.15 24.9894 165.333 25.4392C165.519 25.8889 165.779 26.2787 166.111 26.6119C166.447 26.9417 166.84 27.1982 167.296 27.3781C167.752 27.558 168.254 27.648 168.803 27.648C169.352 27.648 169.861 27.5447 170.334 27.3415C170.803 27.1349 171.229 26.8251 171.608 26.402L172.87 27.6013C172.38 28.171 171.781 28.6074 171.069 28.9073C170.361 29.2071 169.569 29.357 168.7 29.357L168.703 29.3537Z" fill="#037248"/>
<path d="M177.864 29.307C177.046 29.307 176.314 29.1305 175.675 28.774C175.036 28.4175 174.53 27.9311 174.161 27.3115C173.791 26.6918 173.605 25.9856 173.605 25.196C173.605 24.4064 173.791 23.6868 174.161 23.0705C174.53 22.4542 175.036 21.9711 175.675 21.6213C176.314 21.2715 177.046 21.0949 177.864 21.0949C178.683 21.0949 179.431 21.2715 180.077 21.6213C180.722 21.9711 181.225 22.4509 181.591 23.0638C181.957 23.6735 182.137 24.3864 182.137 25.196C182.137 26.0055 181.954 26.6918 181.591 27.3115C181.225 27.9311 180.722 28.4209 180.077 28.774C179.431 29.1305 178.696 29.307 177.864 29.307ZM177.864 27.7013C178.323 27.7013 178.733 27.6013 179.092 27.4014C179.451 27.2015 179.734 26.9117 179.941 26.5319C180.147 26.1521 180.247 25.7057 180.247 25.196C180.247 24.6863 180.144 24.2265 179.941 23.8534C179.738 23.4803 179.455 23.1904 179.092 22.9906C178.729 22.7907 178.327 22.6907 177.877 22.6907C177.428 22.6907 177.009 22.7907 176.656 22.9906C176.3 23.1904 176.021 23.4769 175.808 23.8534C175.598 24.2299 175.492 24.6763 175.492 25.196C175.492 25.7157 175.595 26.1521 175.808 26.5319C176.017 26.9117 176.3 27.2015 176.656 27.4014C177.012 27.6013 177.415 27.7013 177.864 27.7013Z" fill="#037248"/>
<path d="M183.937 29.2038V18.0633H185.81V29.2038H183.937Z" fill="#037248"/>
<path d="M188.272 29.2038V18.0633H190.146V29.2038H188.272Z" fill="#037248"/>
<path d="M196.368 29.307C195.477 29.307 194.701 29.1305 194.036 28.774C193.37 28.4175 192.858 27.9311 192.492 27.3115C192.126 26.6918 191.946 25.9856 191.946 25.196C191.946 24.4064 192.122 23.6868 192.478 23.0705C192.834 22.4542 193.324 21.9711 193.949 21.6213C194.575 21.2715 195.287 21.0949 196.085 21.0949C196.884 21.0949 197.56 21.2648 198.168 21.6047C198.777 21.9445 199.257 22.4242 199.606 23.0472C199.955 23.6668 200.132 24.3998 200.132 25.2393C200.132 25.3193 200.132 25.4092 200.125 25.5092C200.122 25.6091 200.112 25.7057 200.102 25.7957H193.43V24.5497H199.113L198.378 24.9395C198.388 24.4797 198.292 24.0733 198.092 23.7235C197.892 23.3737 197.619 23.0972 197.273 22.8973C196.927 22.6974 196.531 22.5974 196.082 22.5974C195.633 22.5974 195.22 22.6974 194.874 22.8973C194.528 23.0972 194.259 23.3737 194.066 23.7301C193.869 24.0866 193.773 24.503 193.773 24.9828V25.2826C193.773 25.7623 193.883 26.1888 194.102 26.5586C194.322 26.9284 194.631 27.2149 195.031 27.4148C195.43 27.6147 195.889 27.7146 196.412 27.7146C196.861 27.7146 197.267 27.6446 197.626 27.5047C197.985 27.3648 198.305 27.1449 198.584 26.8451L199.589 28.0011C199.23 28.4209 198.777 28.744 198.232 28.9706C197.686 29.1971 197.064 29.307 196.365 29.307H196.368Z" fill="#037248"/>
<path d="M205.605 29.307C204.767 29.307 204.018 29.1305 203.363 28.774C202.707 28.4175 202.195 27.9311 201.825 27.3115C201.456 26.6918 201.27 25.9856 201.27 25.196C201.27 24.4064 201.456 23.6868 201.825 23.0705C202.195 22.4542 202.707 21.9711 203.363 21.6213C204.018 21.2715 204.764 21.0949 205.605 21.0949C206.384 21.0949 207.073 21.2515 207.669 21.568C208.264 21.8845 208.717 22.3476 209.026 22.9572L207.585 23.7968C207.346 23.417 207.053 23.1371 206.707 22.9572C206.361 22.7773 205.988 22.6874 205.589 22.6874C205.13 22.6874 204.714 22.7873 204.344 22.9872C203.975 23.1871 203.686 23.4736 203.476 23.8501C203.266 24.2265 203.16 24.673 203.16 25.1927C203.16 25.7124 203.266 26.1621 203.476 26.5353C203.686 26.9117 203.975 27.1982 204.344 27.3981C204.714 27.598 205.13 27.6979 205.589 27.6979C205.988 27.6979 206.361 27.608 206.707 27.4281C207.053 27.2482 207.342 26.9683 207.585 26.5886L209.026 27.4281C208.717 28.0278 208.264 28.4908 207.669 28.8173C207.073 29.1438 206.387 29.3037 205.605 29.3037V29.307Z" fill="#037248"/>
<path d="M209.685 22.7474V21.2449H215.022V22.7474H209.685ZM213.764 29.307C212.886 29.307 212.204 29.0805 211.725 28.6241C211.245 28.1677 211.006 27.4947 211.006 26.6052V19.4125H212.879V26.5586C212.879 26.9384 212.976 27.2349 213.172 27.4447C213.368 27.6546 213.638 27.7612 213.991 27.7612C214.41 27.7612 214.759 27.6513 215.039 27.4314L215.564 28.7673C215.345 28.9472 215.075 29.0838 214.756 29.1738C214.436 29.2637 214.107 29.3104 213.764 29.3104V29.307Z" fill="#037248"/>
<path d="M218.05 19.8656C217.701 19.8656 217.411 19.7557 217.188 19.5358C216.962 19.3159 216.852 19.0494 216.852 18.7396C216.852 18.4298 216.965 18.1532 217.188 17.9367C217.411 17.7201 217.701 17.6135 218.05 17.6135C218.4 17.6135 218.686 17.7168 218.912 17.92C219.138 18.1266 219.248 18.3831 219.248 18.6929C219.248 19.0228 219.138 19.3026 218.919 19.5258C218.699 19.7524 218.41 19.8623 218.05 19.8623V19.8656ZM217.105 29.2038V21.1882H218.979V29.2038H217.105Z" fill="#037248"/>
<path d="M225.038 29.307C224.219 29.307 223.487 29.1305 222.848 28.774C222.21 28.4175 221.704 27.9311 221.334 27.3115C220.965 26.6918 220.779 25.9856 220.779 25.196C220.779 24.4064 220.965 23.6868 221.334 23.0705C221.704 22.4542 222.21 21.9711 222.848 21.6213C223.487 21.2715 224.216 21.0949 225.038 21.0949C225.86 21.0949 226.605 21.2715 227.251 21.6213C227.896 21.9711 228.399 22.4509 228.765 23.0638C229.131 23.6735 229.31 24.3864 229.31 25.196C229.31 26.0055 229.127 26.6918 228.765 27.3115C228.399 27.9311 227.896 28.4209 227.251 28.774C226.605 29.1305 225.87 29.307 225.038 29.307ZM225.038 27.7013C225.497 27.7013 225.906 27.6013 226.266 27.4014C226.625 27.2015 226.908 26.9117 227.114 26.5319C227.317 26.1521 227.42 25.7057 227.42 25.196C227.42 24.6863 227.317 24.2265 227.114 23.8534C226.908 23.4769 226.625 23.1904 226.266 22.9906C225.906 22.7907 225.501 22.6907 225.051 22.6907C224.602 22.6907 224.183 22.7907 223.83 22.9906C223.477 23.1904 223.195 23.4769 222.982 23.8534C222.772 24.2299 222.665 24.6763 222.665 25.196C222.665 25.7157 222.772 26.1521 222.982 26.5319C223.191 26.9117 223.474 27.2015 223.83 27.4014C224.186 27.6013 224.589 27.7013 225.038 27.7013Z" fill="#037248"/>
<path d="M235.656 21.0949C236.295 21.0949 236.867 21.2215 237.373 21.4714C237.879 21.7213 238.275 22.1044 238.564 22.6208C238.854 23.1371 239 23.8001 239 24.6097V29.2038H237.127V24.8495C237.127 24.1399 236.96 23.6102 236.624 23.2571C236.288 22.9073 235.822 22.7307 235.223 22.7307C234.784 22.7307 234.395 22.8206 234.052 23.0005C233.713 23.1804 233.45 23.4503 233.263 23.8034C233.077 24.1599 232.987 24.6063 232.987 25.146V29.2004H231.114V21.1849H232.897V23.347L232.581 22.6874C232.861 22.1777 233.27 21.7846 233.802 21.508C234.338 21.2315 234.954 21.0949 235.652 21.0949H235.656Z" fill="#037248"/>
<path d="M165.975 47.2171V38.3587H162.498V36.7063H171.405V38.3587H167.928V47.2171H165.978H165.975Z" fill="#037248"/>
<path d="M175.465 47.3237C174.646 47.3237 173.914 47.1471 173.275 46.7907C172.637 46.4342 172.131 45.9478 171.761 45.3281C171.392 44.7085 171.206 44.0022 171.206 43.2127C171.206 42.4231 171.392 41.7035 171.761 41.0872C172.131 40.4708 172.637 39.9878 173.275 39.638C173.914 39.2882 174.646 39.1116 175.465 39.1116C176.284 39.1116 177.032 39.2882 177.678 39.638C178.323 39.9878 178.826 40.4675 179.192 41.0805C179.558 41.6902 179.737 42.4031 179.737 43.2127C179.737 44.0222 179.554 44.7085 179.192 45.3281C178.826 45.9478 178.323 46.4375 177.678 46.7907C177.032 47.1471 176.297 47.3237 175.465 47.3237ZM175.465 45.7179C175.924 45.7179 176.333 45.618 176.693 45.4181C177.052 45.2182 177.335 44.9284 177.541 44.5486C177.748 44.1688 177.847 43.7224 177.847 43.2127C177.847 42.7029 177.744 42.2432 177.541 41.8701C177.338 41.4969 177.056 41.2071 176.693 41.0072C176.33 40.8073 175.928 40.7074 175.478 40.7074C175.029 40.7074 174.61 40.8073 174.257 41.0072C173.901 41.2071 173.622 41.4936 173.409 41.8701C173.199 42.2465 173.092 42.6929 173.092 43.2127C173.092 43.7324 173.196 44.1688 173.409 44.5486C173.618 44.9284 173.901 45.2182 174.257 45.4181C174.613 45.618 175.016 45.7179 175.465 45.7179Z" fill="#037248"/>
<path d="M185.138 47.3237C184.32 47.3237 183.587 47.1471 182.949 46.7907C182.31 46.4342 181.804 45.9478 181.435 45.3281C181.065 44.7085 180.879 44.0022 180.879 43.2127C180.879 42.4231 181.065 41.7035 181.435 41.0872C181.804 40.4708 182.31 39.9878 182.949 39.638C183.587 39.2882 184.32 39.1116 185.138 39.1116C185.957 39.1116 186.705 39.2882 187.351 39.638C187.996 39.9878 188.499 40.4675 188.865 41.0805C189.231 41.6902 189.411 42.4031 189.411 43.2127C189.411 44.0222 189.228 44.7085 188.865 45.3281C188.499 45.9478 187.996 46.4375 187.351 46.7907C186.705 47.1471 185.97 47.3237 185.138 47.3237ZM185.138 45.7179C185.597 45.7179 186.007 45.618 186.366 45.4181C186.725 45.2182 187.008 44.9284 187.214 44.5486C187.417 44.1688 187.521 43.7224 187.521 43.2127C187.521 42.7029 187.417 42.2432 187.214 41.8701C187.008 41.4936 186.725 41.2071 186.366 41.0072C186.007 40.8073 185.601 40.7074 185.151 40.7074C184.702 40.7074 184.283 40.8073 183.93 41.0072C183.577 41.2071 183.295 41.4936 183.082 41.8701C182.869 42.2465 182.766 42.6929 182.766 43.2127C182.766 43.7324 182.869 44.1688 183.082 44.5486C183.291 44.9284 183.574 45.2182 183.93 45.4181C184.286 45.618 184.689 45.7179 185.138 45.7179Z" fill="#037248"/>
<path d="M191.211 47.2171V36.0766H193.084V47.2171H191.211Z" fill="#037248"/>
<path d="M0 47.0772V0.922821H21.7984C26.8894 0.922821 31.3682 1.86896 35.2314 3.75791C39.0946 5.64686 42.1127 8.30872 44.2855 11.7368C46.4584 15.1649 47.5464 19.2526 47.5464 24C47.5464 28.7474 46.4584 32.7818 44.2855 36.2299C42.1127 39.6813 39.0946 42.3498 35.2314 44.2421C31.3682 46.131 26.8894 47.0772 21.7984 47.0772H0ZM13.0404 36.6596H21.2726C23.908 36.6596 26.2006 36.1666 28.1539 35.1771C30.1071 34.1877 31.6344 32.7385 32.7325 30.8262C33.8306 28.9139 34.3796 26.6385 34.3796 24.0033C34.3796 21.3681 33.8306 19.0361 32.7325 17.1471C31.6344 15.2582 30.1071 13.819 28.1539 12.8295C26.2006 11.8401 23.9047 11.347 21.2726 11.347H13.0404V36.6663V36.6596Z" fill="#037248"/>
<path d="M77.3806 48C73.737 48 70.3662 47.417 67.2717 46.2543C64.1771 45.0916 61.4985 43.4292 59.2358 41.2771C56.9731 39.1249 55.2062 36.5863 53.9351 33.6613C52.6607 30.7396 52.0251 27.5181 52.0251 24.0033C52.0251 20.4886 52.6607 17.2671 53.9351 14.3454C55.2062 11.4237 56.9731 8.88507 59.2358 6.7296C61.4952 4.57746 64.1738 2.91505 67.2717 1.75236C70.3662 0.589678 73.737 0.00666809 77.3806 0.00666809C81.6398 0.00666809 85.4464 0.75292 88.8072 2.24876C92.1646 3.74459 94.963 5.89673 97.2057 8.71183L88.907 16.2277C87.413 14.4686 85.7792 13.1294 83.999 12.2066C82.2221 11.2837 80.2356 10.8207 78.0394 10.8207C76.1527 10.8207 74.4158 11.1305 72.8352 11.7435C71.2547 12.3598 69.9037 13.2493 68.7857 14.412C67.6677 15.578 66.7892 16.9739 66.1503 18.5997C65.5148 20.2254 65.1953 22.0278 65.1953 24.0067C65.1953 25.9856 65.5148 27.7879 66.1503 29.4137C66.7859 31.0394 67.6643 32.4353 68.7857 33.6013C69.9037 34.7674 71.2547 35.6569 72.8352 36.2699C74.4158 36.8862 76.1494 37.1927 78.0394 37.1927C80.2322 37.1927 82.2221 36.7296 83.999 35.8068C85.7792 34.884 87.413 33.5447 88.907 31.7857L97.2057 39.3015C94.9664 42.07 92.1679 44.2154 88.8072 45.7313C85.4497 47.2471 81.6398 48.0067 77.3806 48.0067V48Z" fill="#037248"/>
<path d="M112.416 47.0772V11.2737H98.2573V0.922821H125.456V11.2737V47.0772H112.416Z" fill="#037248"/>
<path d="M133.512 12.4864C136.956 12.4864 139.748 9.69122 139.748 6.2432C139.748 2.79517 136.956 0 133.512 0C130.068 0 127.276 2.79517 127.276 6.2432C127.276 9.69122 130.068 12.4864 133.512 12.4864Z" fill="#FC9D03"/>
<path d="M151.667 0.676285H148.519V48H151.667V0.676285Z" fill="#037248"/>
</g>
<defs>
<clipPath id="clip0_203_230">
<rect width="239" height="48" fill="white"/>
</clipPath>
</defs>
</svg>
