<svg width="15" height="15" viewBox="0 0 15 15" fill="none" xmlns="http://www.w3.org/2000/svg">
<mask id="mask0_111_191" style="mask-type:alpha" maskUnits="userSpaceOnUse" x="-4" y="-2" width="21" height="21">
<rect x="-3.36098" y="-1.80491" width="20.1659" height="20.1659" fill="#D9D9D9"/>
</mask>
<g mask="url(#mask0_111_191)">
<path d="M1.35731 15C0.970589 15 0.647689 14.8705 0.388613 14.6114C0.129538 14.3523 0 14.0294 0 13.6427V2.91338C0 2.52666 0.129538 2.20376 0.388613 1.94469C0.647689 1.68561 0.970589 1.55607 1.35731 1.55607H8.40407L7.56383 2.39632H1.35731C1.22805 2.39632 1.10956 2.45018 1.00182 2.5579C0.894105 2.66563 0.840245 2.78413 0.840245 2.91338V13.6427C0.840245 13.7719 0.894105 13.8904 1.00182 13.9982C1.10956 14.1059 1.22805 14.1598 1.35731 14.1598H12.0866C12.2159 14.1598 12.3344 14.1059 12.4421 13.9982C12.5498 13.8904 12.6037 13.7719 12.6037 13.6427V7.35053L13.4439 6.51029V13.6427C13.4439 14.0294 13.3144 14.3523 13.0553 14.6114C12.7962 14.8705 12.4733 15 12.0866 15H1.35731ZM5.04147 9.95853V7.76095L12.5568 0.245604C12.6495 0.152967 12.7469 0.0888705 12.8493 0.0533141C12.9516 0.0177717 13.0594 0 13.1725 0C13.278 0 13.3812 0.0177717 13.4819 0.0533141C13.5826 0.0888705 13.6739 0.147583 13.7558 0.229451L14.6898 1.13595C14.7792 1.22859 14.847 1.33066 14.8933 1.44216C14.9397 1.55364 14.9628 1.66594 14.9628 1.77905C14.9628 1.89216 14.9459 1.99908 14.9119 2.09982C14.878 2.20053 14.8147 2.29722 14.7221 2.38987L7.15824 9.95853H5.04147ZM5.88172 9.11828H6.79952L12.4001 3.51773L11.9412 3.05883L11.429 2.5676L5.88172 8.11484V9.11828Z" fill="white"/>
</g>
</svg>
