<svg width="54" height="54" viewBox="0 0 54 54" fill="none" xmlns="http://www.w3.org/2000/svg">
<path d="M22.2309 18.3168V12.7069H19.0537V26.2574C17.366 24.745 15.1393 23.8243 12.6995 23.8243H9.52237V27.001C9.52237 32.2554 13.7976 36.53 19.0527 36.53V41.295H22.2298V28.5893C27.4849 28.5893 31.7601 24.3147 31.7601 19.0603V15.8836H28.583C26.1443 15.8836 23.9165 16.8044 22.2288 18.3168H22.2309ZM12.7006 27.001C16.2036 27.001 19.0548 29.8507 19.0548 33.3544C15.5517 33.3544 12.7006 30.5046 12.7006 27.001ZM22.2309 25.4126C22.2309 21.9101 25.081 19.0593 28.5851 19.0593C28.5851 22.5618 25.735 25.4126 22.2309 25.4126Z" fill="#A8BD38"/>
<path d="M36.527 38.1184H39.7041V41.2951H36.527V38.1184Z" fill="#A8BD38"/>
<path d="M39.704 44.4717H42.8811V47.6484H39.704V44.4717Z" fill="#A8BD38"/>
<path d="M33.3508 44.4717H36.5279V47.6484H33.3508V44.4717Z" fill="#A8BD38"/>
<path d="M50.6236 42.9539L43.6006 34.372C42.9402 33.5641 42.1238 32.927 41.2135 32.4841C41.6913 14.5873 39.6175 1.11901 39.5184 0H1.76735L1.59331 1.39112C-0.531103 18.3841 -0.531103 35.6154 1.59331 52.6084L1.76735 53.9995H54V52.4112C54 48.9729 52.8007 45.6138 50.6236 42.9528V42.9539ZM32.6304 34.372C25.0135 43.7027 25.2561 43.2945 24.5188 44.4705H3.92974C2.92766 32.8501 2.92766 21.1505 3.92974 9.53007H37.3549C37.9931 16.935 38.2304 24.3831 38.0553 31.7743C35.9436 31.7933 33.9626 32.7435 32.6304 34.372ZM36.7083 3.17774C36.8328 4.23559 36.9478 5.29448 37.0564 6.35443H4.22825C4.3369 5.29448 4.45188 4.23559 4.5774 3.17774H36.7083ZM4.5774 50.8239C4.45293 49.766 4.3369 48.7071 4.22825 47.6472H23.0146C22.6592 48.6998 22.4282 49.7871 22.3163 50.8239H4.5774ZM25.5188 50.8239C25.793 48.8232 26.5789 46.9258 27.7814 45.3311C28.0725 44.944 27.717 45.4007 35.0902 36.3843C36.8107 34.372 39.6629 34.5755 41.1428 36.3843L48.1658 44.9662C49.5424 46.6484 50.4221 48.685 50.7153 50.8249H25.5188V50.8239Z" fill="#158C33"/>
</svg>
