<svg width="262" height="53" viewBox="0 0 262 53" fill="none" xmlns="http://www.w3.org/2000/svg">
<path d="M179.613 12.2503V0.74057H184.643C185.89 0.74057 186.988 0.981344 187.93 1.46289C188.871 1.94444 189.608 2.61204 190.133 3.46935C190.658 4.323 190.921 5.33352 190.921 6.49362C190.921 7.65371 190.658 8.64964 190.133 9.51059C189.608 10.3715 188.874 11.0428 187.93 11.5243C186.988 12.0059 185.89 12.2467 184.643 12.2467H179.613V12.2503ZM181.75 10.4409H184.544C185.409 10.4409 186.157 10.2767 186.788 9.94836C187.419 9.62003 187.904 9.16037 188.251 8.56573C188.597 7.97474 188.769 7.2816 188.769 6.49362C188.769 5.70563 188.597 5.00154 188.251 4.4142C187.904 3.82686 187.419 3.37085 186.788 3.04252C186.157 2.71419 185.409 2.55003 184.544 2.55003H181.75V10.4409Z" fill="white"/>
<path d="M195.637 12.3634C194.981 12.3634 194.404 12.2503 193.912 12.0278C193.419 11.8052 193.036 11.4915 192.77 11.0902C192.504 10.6889 192.369 10.2366 192.369 9.73313C192.369 9.22969 192.486 8.79557 192.723 8.40157C192.96 8.00758 193.343 7.69384 193.883 7.46401C194.419 7.23418 195.13 7.11744 196.02 7.11744H198.57V8.48183H196.17C195.469 8.48183 194.995 8.59492 194.754 8.81745C194.514 9.04364 194.393 9.31724 194.393 9.64922C194.393 10.0213 194.543 10.3168 194.838 10.5357C195.134 10.7546 195.546 10.864 196.071 10.864C196.597 10.864 197.027 10.7473 197.428 10.5175C197.83 10.2876 198.114 9.94836 198.293 9.49965L198.639 10.7327C198.442 11.2471 198.089 11.6484 197.578 11.9329C197.067 12.2175 196.425 12.3598 195.648 12.3598L195.637 12.3634ZM198.399 12.2467V10.47L198.282 10.0906V6.98246C198.282 6.38053 198.099 5.90992 197.738 5.57795C197.377 5.24232 196.83 5.07816 196.093 5.07816C195.601 5.07816 195.116 5.15477 194.638 5.30799C194.16 5.46121 193.759 5.67644 193.43 5.95005L192.624 4.45433C193.095 4.09317 193.657 3.82321 194.309 3.64081C194.962 3.4584 195.637 3.37085 196.341 3.37085C197.611 3.37085 198.596 3.67364 199.292 4.28287C199.989 4.8921 200.335 5.82966 200.335 7.10285V12.2503H198.395L198.399 12.2467Z" fill="white"/>
<path d="M201.802 5.1803V3.53501H207.653V5.1803H201.802ZM206.274 12.3634C205.311 12.3634 204.563 12.1153 204.038 11.6155C203.513 11.1158 203.25 10.3788 203.25 9.4048V1.53221H205.304V9.35737C205.304 9.77325 205.409 10.0979 205.625 10.3278C205.84 10.5576 206.135 10.6743 206.522 10.6743C206.982 10.6743 207.365 10.5539 207.671 10.3132L208.247 11.7761C208.007 11.9731 207.711 12.1226 207.361 12.2211C207.011 12.3196 206.65 12.3707 206.274 12.3707V12.3634Z" fill="white"/>
<path d="M212.588 12.3634C211.932 12.3634 211.355 12.2503 210.863 12.0278C210.37 11.8052 209.987 11.4915 209.721 11.0902C209.455 10.6889 209.32 10.2366 209.32 9.73313C209.32 9.22969 209.437 8.79557 209.674 8.40157C209.907 8.00758 210.294 7.69384 210.834 7.46401C211.37 7.23418 212.081 7.11744 212.971 7.11744H215.521V8.48183H213.121C212.42 8.48183 211.946 8.59492 211.705 8.81745C211.465 9.04364 211.344 9.31724 211.344 9.64922C211.344 10.0213 211.494 10.3168 211.789 10.5357C212.085 10.7546 212.497 10.864 213.022 10.864C213.548 10.864 213.978 10.7473 214.379 10.5175C214.78 10.2876 215.069 9.94836 215.244 9.49965L215.59 10.7327C215.393 11.2471 215.039 11.6484 214.529 11.9329C214.018 12.2175 213.376 12.3598 212.599 12.3598L212.588 12.3634ZM215.349 12.2467V10.47L215.236 10.0906V6.98246C215.236 6.38053 215.054 5.90992 214.693 5.57795C214.332 5.24232 213.785 5.07816 213.048 5.07816C212.555 5.07816 212.07 5.15477 211.592 5.30799C211.114 5.46121 210.713 5.67644 210.385 5.95005L209.579 4.45433C210.049 4.09317 210.611 3.82321 211.264 3.64081C211.917 3.4584 212.592 3.37085 213.292 3.37085C214.562 3.37085 215.546 3.67364 216.243 4.28287C216.94 4.8921 217.286 5.82966 217.286 7.10285V12.2503H215.346L215.349 12.2467Z" fill="white"/>
<path d="M184.939 32.1434C184.063 32.1434 183.25 31.9974 182.498 31.7092C181.747 31.4174 181.094 31.0088 180.543 30.4762C179.989 29.9436 179.558 29.3161 179.252 28.5938C178.945 27.8715 178.792 27.0798 178.792 26.2262C178.792 25.3725 178.945 24.5809 179.252 23.8585C179.558 23.1362 179.992 22.5088 180.55 21.9761C181.109 21.4435 181.761 21.0349 182.506 20.7431C183.25 20.4512 184.067 20.309 184.953 20.309C185.894 20.309 186.755 20.4695 187.532 20.7941C188.309 21.1188 188.969 21.5967 189.506 22.2315L188.123 23.5302C187.707 23.0815 187.24 22.7459 186.726 22.5197C186.212 22.2972 185.654 22.1841 185.048 22.1841C184.443 22.1841 183.895 22.2826 183.396 22.4796C182.896 22.6766 182.465 22.9575 182.097 23.3186C181.729 23.6798 181.444 24.1066 181.243 24.6028C181.039 25.0953 180.941 25.6388 180.941 26.2298C180.941 26.8208 181.043 27.3644 181.243 27.8569C181.448 28.3494 181.732 28.7762 182.097 29.141C182.465 29.5021 182.896 29.7831 183.396 29.9801C183.895 30.177 184.446 30.2755 185.048 30.2755C185.65 30.2755 186.208 30.1625 186.726 29.9399C187.24 29.7137 187.707 29.3745 188.123 28.9112L189.506 30.2245C188.969 30.8483 188.313 31.3262 187.532 31.6545C186.755 31.9829 185.887 32.147 184.935 32.147L184.939 32.1434Z" fill="white"/>
<path d="M194.981 32.0923C194.083 32.0923 193.281 31.899 192.58 31.5086C191.88 31.1183 191.326 30.5856 190.921 29.9071C190.516 29.2285 190.312 28.4551 190.312 27.5905C190.312 26.726 190.516 25.938 190.921 25.2631C191.326 24.5882 191.88 24.0592 192.58 23.6761C193.281 23.2931 194.083 23.0997 194.981 23.0997C195.878 23.0997 196.699 23.2931 197.406 23.6761C198.114 24.0592 198.665 24.5845 199.066 25.2558C199.467 25.9234 199.664 26.7041 199.664 27.5905C199.664 28.477 199.464 29.2285 199.066 29.9071C198.665 30.5856 198.114 31.1219 197.406 31.5086C196.699 31.899 195.893 32.0923 194.981 32.0923ZM194.981 30.3339C195.484 30.3339 195.933 30.2245 196.327 30.0056C196.721 29.7867 197.031 29.4693 197.257 29.0534C197.483 28.6376 197.592 28.1487 197.592 27.5905C197.592 27.0324 197.479 26.529 197.257 26.1204C197.034 25.7118 196.724 25.3944 196.327 25.1755C195.929 24.9566 195.488 24.8472 194.995 24.8472C194.503 24.8472 194.043 24.9566 193.656 25.1755C193.266 25.3944 192.96 25.7081 192.726 26.1204C192.496 26.5326 192.38 27.0214 192.38 27.5905C192.38 28.1597 192.493 28.6376 192.726 29.0534C192.956 29.4693 193.266 29.7867 193.656 30.0056C194.047 30.2245 194.488 30.3339 194.981 30.3339Z" fill="white"/>
<path d="M201.638 31.9792V19.78H203.691V31.9792H201.638Z" fill="white"/>
<path d="M206.391 31.9792V19.78H208.444V31.9792H206.391Z" fill="white"/>
<path d="M215.266 32.0923C214.288 32.0923 213.438 31.899 212.708 31.5086C211.979 31.1183 211.417 30.5856 211.016 29.9071C210.615 29.2285 210.418 28.4551 210.418 27.5905C210.418 26.726 210.611 25.938 211.001 25.2631C211.392 24.5882 211.928 24.0592 212.614 23.6761C213.299 23.2931 214.08 23.0997 214.955 23.0997C215.831 23.0997 216.571 23.2858 217.239 23.6579C217.906 24.03 218.432 24.5553 218.815 25.2375C219.198 25.9161 219.391 26.7187 219.391 27.638C219.391 27.7255 219.391 27.824 219.384 27.9335C219.38 28.0429 219.369 28.1487 219.358 28.2472H212.045V26.8828H218.275L217.469 27.3096C217.48 26.8062 217.374 26.3611 217.155 25.9781C216.936 25.595 216.637 25.2923 216.258 25.0734C215.878 24.8545 215.444 24.745 214.952 24.745C214.459 24.745 214.007 24.8545 213.628 25.0734C213.248 25.2923 212.953 25.595 212.741 25.9854C212.526 26.3757 212.42 26.8317 212.42 27.3571V27.6854C212.42 28.2107 212.541 28.6777 212.781 29.0826C213.022 29.4876 213.361 29.8013 213.799 30.0202C214.237 30.2391 214.74 30.3485 215.313 30.3485C215.805 30.3485 216.25 30.2719 216.644 30.1187C217.038 29.9655 217.388 29.7247 217.695 29.3964L218.797 30.6622C218.403 31.1219 217.906 31.4758 217.308 31.7238C216.71 31.9719 216.028 32.0923 215.262 32.0923H215.266Z" fill="white"/>
<path d="M225.392 32.0923C224.472 32.0923 223.652 31.899 222.933 31.5086C222.214 31.1183 221.653 30.5856 221.248 29.9071C220.843 29.2285 220.639 28.4551 220.639 27.5905C220.639 26.726 220.843 25.938 221.248 25.2631C221.653 24.5882 222.214 24.0592 222.933 23.6761C223.652 23.2931 224.469 23.0997 225.392 23.0997C226.245 23.0997 227 23.2712 227.653 23.6178C228.306 23.9643 228.802 24.4714 229.141 25.139L227.562 26.0583C227.299 25.6425 226.978 25.336 226.599 25.139C226.22 24.942 225.811 24.8435 225.373 24.8435C224.87 24.8435 224.414 24.953 224.009 25.1719C223.604 25.3907 223.287 25.7045 223.057 26.1167C222.827 26.529 222.711 27.0178 222.711 27.5869C222.711 28.156 222.827 28.6485 223.057 29.0571C223.287 29.4693 223.604 29.7831 224.009 30.0019C224.414 30.2208 224.87 30.3303 225.373 30.3303C225.811 30.3303 226.22 30.2318 226.599 30.0348C226.978 29.8378 227.296 29.5313 227.562 29.1155L229.141 30.0348C228.802 30.6914 228.306 31.1985 227.653 31.556C227 31.9135 226.249 32.0887 225.392 32.0887V32.0923Z" fill="white"/>
<path d="M229.864 24.9092V23.2639H235.714V24.9092H229.864ZM234.336 32.0923C233.373 32.0923 232.625 31.8442 232.1 31.3444C231.574 30.8447 231.312 30.1077 231.312 29.1337V21.2575H233.365V29.0826C233.365 29.4985 233.471 29.8232 233.686 30.053C233.902 30.2828 234.197 30.3996 234.584 30.3996C235.043 30.3996 235.426 30.2792 235.733 30.0384L236.309 31.5013C236.068 31.6983 235.773 31.8479 235.423 31.9464C235.072 32.0449 234.711 32.0959 234.336 32.0959V32.0923Z" fill="white"/>
<path d="M239.034 21.7536C238.651 21.7536 238.334 21.6332 238.089 21.3924C237.841 21.1517 237.721 20.8598 237.721 20.5205C237.721 20.1813 237.845 19.8785 238.089 19.6414C238.334 19.4042 238.651 19.2875 239.034 19.2875C239.417 19.2875 239.731 19.4006 239.979 19.6231C240.227 19.8493 240.347 20.1302 240.347 20.4695C240.347 20.8306 240.227 21.1371 239.986 21.3815C239.745 21.6296 239.428 21.7499 239.034 21.7499V21.7536ZM237.998 31.9792V23.2019H240.052V31.9792H237.998Z" fill="white"/>
<path d="M246.694 32.0923C245.797 32.0923 244.994 31.899 244.294 31.5086C243.594 31.1183 243.039 30.5856 242.634 29.9071C242.229 29.2285 242.025 28.4551 242.025 27.5905C242.025 26.726 242.229 25.938 242.634 25.2631C243.039 24.5882 243.594 24.0592 244.294 23.6761C244.994 23.2931 245.793 23.0997 246.694 23.0997C247.595 23.0997 248.412 23.2931 249.12 23.6761C249.828 24.0592 250.378 24.5845 250.78 25.2558C251.181 25.9234 251.378 26.7041 251.378 27.5905C251.378 28.477 251.177 29.2285 250.78 29.9071C250.378 30.5856 249.828 31.1219 249.12 31.5086C248.412 31.899 247.606 32.0923 246.694 32.0923ZM246.694 30.3339C247.198 30.3339 247.646 30.2245 248.04 30.0056C248.434 29.7867 248.744 29.4693 248.97 29.0534C249.193 28.6376 249.306 28.1487 249.306 27.5905C249.306 27.0324 249.193 26.529 248.97 26.1204C248.744 25.7081 248.434 25.3944 248.04 25.1755C247.646 24.9566 247.201 24.8472 246.709 24.8472C246.216 24.8472 245.757 24.9566 245.37 25.1755C244.983 25.3944 244.673 25.7081 244.44 26.1204C244.21 26.5326 244.093 27.0214 244.093 27.5905C244.093 28.1597 244.21 28.6376 244.44 29.0534C244.67 29.4693 244.98 29.7867 245.37 30.0056C245.76 30.2245 246.202 30.3339 246.694 30.3339Z" fill="white"/>
<path d="M258.334 23.0997C259.034 23.0997 259.662 23.2384 260.216 23.512C260.771 23.7856 261.205 24.2051 261.522 24.7706C261.84 25.336 262 26.062 262 26.9485V31.9792H259.946V27.2111C259.946 26.4341 259.764 25.8541 259.396 25.4674C259.027 25.0843 258.516 24.891 257.86 24.891C257.378 24.891 256.952 24.9895 256.576 25.1865C256.204 25.3835 255.916 25.6789 255.711 26.0656C255.507 26.456 255.409 26.9448 255.409 27.5358V31.9756H253.355V23.1982H255.31V25.5659L254.964 24.8435C255.27 24.2854 255.719 23.8549 256.302 23.5521C256.89 23.2493 257.564 23.0997 258.33 23.0997H258.334Z" fill="white"/>
<path d="M181.947 51.7045V42.0042H178.135V40.1947H187.9V42.0042H184.089V51.7045H181.951H181.947Z" fill="white"/>
<path d="M192.351 51.8212C191.453 51.8212 190.651 51.6278 189.951 51.2375C189.25 50.8472 188.696 50.3145 188.291 49.636C187.886 48.9574 187.682 48.184 187.682 47.3194C187.682 46.4548 187.886 45.6669 188.291 44.992C188.696 44.3171 189.25 43.7881 189.951 43.405C190.651 43.022 191.453 42.8286 192.351 42.8286C193.248 42.8286 194.069 43.022 194.776 43.405C195.484 43.7881 196.035 44.3134 196.436 44.9847C196.837 45.6523 197.034 46.433 197.034 47.3194C197.034 48.2059 196.834 48.9574 196.436 49.636C196.035 50.3145 195.484 50.8508 194.776 51.2375C194.069 51.6278 193.263 51.8212 192.351 51.8212ZM192.351 50.0628C192.854 50.0628 193.303 49.9534 193.697 49.7345C194.091 49.5156 194.401 49.1982 194.627 48.7823C194.853 48.3664 194.962 47.8776 194.962 47.3194C194.962 46.7613 194.849 46.2578 194.627 45.8493C194.404 45.4407 194.094 45.1233 193.697 44.9044C193.299 44.6855 192.858 44.5761 192.365 44.5761C191.873 44.5761 191.413 44.6855 191.027 44.9044C190.636 45.1233 190.33 45.437 190.096 45.8493C189.867 46.2615 189.75 46.7503 189.75 47.3194C189.75 47.8885 189.863 48.3664 190.096 48.7823C190.326 49.1982 190.636 49.5156 191.027 49.7345C191.417 49.9534 191.858 50.0628 192.351 50.0628Z" fill="white"/>
<path d="M202.954 51.8212C202.057 51.8212 201.255 51.6278 200.554 51.2375C199.854 50.8472 199.299 50.3145 198.895 49.636C198.49 48.9574 198.285 48.184 198.285 47.3194C198.285 46.4548 198.49 45.6669 198.895 44.992C199.299 44.3171 199.854 43.7881 200.554 43.405C201.255 43.022 202.057 42.8286 202.954 42.8286C203.852 42.8286 204.673 43.022 205.38 43.405C206.088 43.7881 206.639 44.3134 207.04 44.9847C207.441 45.6523 207.638 46.433 207.638 47.3194C207.638 48.2059 207.437 48.9574 207.04 49.636C206.639 50.3145 206.088 50.8508 205.38 51.2375C204.673 51.6278 203.866 51.8212 202.954 51.8212ZM202.954 50.0628C203.458 50.0628 203.907 49.9534 204.3 49.7345C204.694 49.5156 205.004 49.1982 205.231 48.7823C205.453 48.3664 205.566 47.8776 205.566 47.3194C205.566 46.7613 205.453 46.2578 205.231 45.8493C205.004 45.437 204.694 45.1233 204.3 44.9044C203.907 44.6855 203.461 44.5761 202.969 44.5761C202.477 44.5761 202.017 44.6855 201.63 44.9044C201.244 45.1233 200.934 45.437 200.7 45.8493C200.467 46.2615 200.354 46.7503 200.354 47.3194C200.354 47.8885 200.467 48.3664 200.7 48.7823C200.93 49.1982 201.24 49.5156 201.63 49.7345C202.021 49.9534 202.462 50.0628 202.954 50.0628Z" fill="white"/>
<path d="M209.612 51.7045V39.5052H211.665V51.7045H209.612Z" fill="white"/>
<path d="M0 51.5512V1.01052H23.8961C29.4771 1.01052 34.3869 2.04658 38.6219 4.11505C42.8569 6.18352 46.1654 9.09835 48.5473 12.8522C50.9293 16.6061 52.1221 21.0823 52.1221 26.2809C52.1221 31.4794 50.9293 35.8973 48.5473 39.673C46.1654 43.4525 42.8569 46.3746 38.6219 48.4467C34.3869 50.5152 29.4771 51.5512 23.8961 51.5512H0ZM14.2954 40.1436H23.3198C26.2088 40.1436 28.722 39.6037 30.8632 38.5202C33.0044 37.4367 34.6787 35.8498 35.8825 33.7558C37.0862 31.6618 37.6881 29.1702 37.6881 26.2845C37.6881 23.3989 37.0862 20.8452 35.8825 18.7767C34.6787 16.7083 33.0044 15.1323 30.8632 14.0488C28.722 12.9653 26.2051 12.4254 23.3198 12.4254H14.2954V40.1509V40.1436Z" fill="white"/>
<path d="M84.8273 52.5617C80.833 52.5617 77.1379 51.9233 73.7455 50.6501C70.3532 49.377 67.4168 47.5566 64.9363 45.1999C62.4559 42.8432 60.5189 40.0634 59.1255 36.8603C57.7284 33.661 57.0317 30.1333 57.0317 26.2845C57.0317 22.4358 57.7284 18.9081 59.1255 15.7087C60.5189 12.5093 62.4559 9.72947 64.9363 7.36915C67.4131 5.01248 70.3495 3.19208 73.7455 1.9189C77.1379 0.64571 80.833 0.0072937 84.8273 0.0072937C89.4963 0.0072937 93.6693 0.824467 97.3535 2.46246C101.034 4.10046 104.102 6.45713 106.56 9.53977L97.4629 17.7699C95.8251 15.8437 94.0341 14.3771 92.0825 13.3666C90.1347 12.3561 87.957 11.849 85.5495 11.849C83.4812 11.849 81.5771 12.1883 79.8445 12.8595C78.1118 13.5344 76.6309 14.5085 75.4052 15.7817C74.1796 17.0585 73.2166 18.587 72.5162 20.3673C71.8195 22.1476 71.4694 24.1212 71.4694 26.2882C71.4694 28.4551 71.8195 30.4288 72.5162 32.209C73.213 33.9893 74.176 35.5178 75.4052 36.7947C76.6309 38.0715 78.1118 39.0456 79.8445 39.7168C81.5771 40.3917 83.4776 40.7273 85.5495 40.7273C87.9533 40.7273 90.1347 40.2202 92.0825 39.2097C94.0341 38.1992 95.8251 36.7327 97.4629 34.8065L106.56 43.0366C104.105 46.0681 101.038 48.4175 97.3535 50.0774C93.6729 51.7373 89.4963 52.569 84.8273 52.569V52.5617Z" fill="white"/>
<path d="M123.234 51.5512V12.3452H107.713V1.01052H137.529V12.3452V51.5512H123.234Z" fill="white"/>
<path d="M146.36 13.6731C150.136 13.6731 153.196 10.6122 153.196 6.83653C153.196 3.06082 150.136 0 146.36 0C142.585 0 139.525 3.06082 139.525 6.83653C139.525 10.6122 142.585 13.6731 146.36 13.6731Z" fill="#FC9D03"/>
<path d="M166.262 0.74057H162.812V52.5618H166.262V0.74057Z" fill="white"/>
</svg>
